<?xml version="1.0" encoding="UTF-8" standalone="no"?>
<!DOCTYPE svg PUBLIC "-//W3C//DTD SVG 1.1//EN"
 "http://www.w3.org/Graphics/SVG/1.1/DTD/svg11.dtd">
<!-- Generated by graphviz version 2.40.1 (20161225.0304)
 -->
<!-- Title: dependencies Pages: 1 -->
<svg width="778pt" height="211pt"
 viewBox="0.00 0.00 778.00 211.00" xmlns="http://www.w3.org/2000/svg" xmlns:xlink="http://www.w3.org/1999/xlink">
<g id="graph0" class="graph" transform="scale(1 1) rotate(0) translate(4 207)">
<title>dependencies</title>
<polygon fill="#ffffff" stroke="transparent" points="-4,4 -4,-207 774,-207 774,4 -4,4"/>
<text text-anchor="start" x="364.0091" y="-42.4" font-family="sans-serif" font-weight="bold" font-size="14.00" fill="#000000">Legend</text>
<polygon fill="#ffffb3" stroke="transparent" points="151,-10 151,-30 171,-30 171,-10 151,-10"/>
<text text-anchor="start" x="174.629" y="-15.4" font-family="sans-serif" font-size="14.00" fill="#000000"> &#160;Declarations</text>
<polygon fill="#8dd3c7" stroke="transparent" points="264,-10 264,-30 284,-30 284,-10 264,-10"/>
<text text-anchor="start" x="287.7251" y="-15.4" font-family="sans-serif" font-size="14.00" fill="#000000"> &#160;Module</text>
<polygon fill="#80b1d3" stroke="transparent" points="350,-10 350,-30 370,-30 370,-10 350,-10"/>
<text text-anchor="start" x="373.7812" y="-15.4" font-family="sans-serif" font-size="14.00" fill="#000000"> &#160;Bootstrap</text>
<polygon fill="#fdb462" stroke="transparent" points="447,-10 447,-30 467,-30 467,-10 447,-10"/>
<text text-anchor="start" x="470.6732" y="-15.4" font-family="sans-serif" font-size="14.00" fill="#000000"> &#160;Providers</text>
<polygon fill="#fb8072" stroke="transparent" points="543,-10 543,-30 563,-30 563,-10 543,-10"/>
<text text-anchor="start" x="566.7258" y="-15.4" font-family="sans-serif" font-size="14.00" fill="#000000"> &#160;Exports</text>
<g id="clust1" class="cluster">
<title>cluster_AboutModule</title>
<polygon fill="none" stroke="#000000" stroke-dasharray="1,5" points="8,-70 8,-195 762,-195 762,-70 8,-70"/>
</g>
<g id="clust2" class="cluster">
<title>cluster_AboutModule_declarations</title>
<polygon fill="none" stroke="#000000" points="448,-78 448,-130 754,-130 754,-78 448,-78"/>
</g>
<g id="clust5" class="cluster">
<title>cluster_AboutModule_imports</title>
<polygon fill="none" stroke="#000000" points="168,-78 168,-130 440,-130 440,-78 168,-78"/>
</g>
<g id="clust8" class="cluster">
<title>cluster_AboutModule_providers</title>
<polygon fill="none" stroke="#000000" points="16,-78 16,-130 160,-130 160,-78 16,-78"/>
</g>
<!-- AboutComponent -->
<g id="node1" class="node">
<title>AboutComponent</title>
<polygon fill="#ffffb3" stroke="#000000" points="746.3301,-122 629.6699,-122 629.6699,-86 746.3301,-86 746.3301,-122"/>
<text text-anchor="middle" x="688" y="-99.8" font-family="Times,serif" font-size="14.00" fill="#000000">AboutComponent</text>
</g>
<!-- AboutModule -->
<g id="node3" class="node">
<title>AboutModule</title>
<polygon fill="#8dd3c7" stroke="#000000" points="409.0481,-187 406.0481,-191 385.0481,-191 382.0481,-187 314.9519,-187 314.9519,-151 409.0481,-151 409.0481,-187"/>
<text text-anchor="middle" x="362" y="-164.8" font-family="Times,serif" font-size="14.00" fill="#000000">AboutModule</text>
</g>
<!-- AboutComponent&#45;&gt;AboutModule -->
<g id="edge1" class="edge">
<title>AboutComponent&#45;&gt;AboutModule</title>
<path fill="none" stroke="#000000" d="M688,-122.2843C688,-143.3211 688,-175 688,-175 688,-175 419.055,-175 419.055,-175"/>
<polygon fill="#000000" stroke="#000000" points="419.0551,-171.5001 409.055,-175 419.055,-178.5001 419.0551,-171.5001"/>
</g>
<!-- AboutDetailsComponent -->
<g id="node2" class="node">
<title>AboutDetailsComponent</title>
<polygon fill="#ffffb3" stroke="#000000" points="611.9818,-122 456.0182,-122 456.0182,-86 611.9818,-86 611.9818,-122"/>
<text text-anchor="middle" x="534" y="-99.8" font-family="Times,serif" font-size="14.00" fill="#000000">AboutDetailsComponent</text>
</g>
<!-- AboutDetailsComponent&#45;&gt;AboutModule -->
<g id="edge2" class="edge">
<title>AboutDetailsComponent&#45;&gt;AboutModule</title>
<path fill="none" stroke="#000000" d="M534,-122.0225C534,-139.3734 534,-163 534,-163 534,-163 419.4551,-163 419.4551,-163"/>
<polygon fill="#000000" stroke="#000000" points="419.4551,-159.5001 409.4551,-163 419.455,-166.5001 419.4551,-159.5001"/>
</g>
<!-- AboutRoutingModule -->
<g id="node4" class="node">
<title>AboutRoutingModule</title>
<polygon fill="#8dd3c7" stroke="#000000" points="431.6652,-122 428.6652,-126 407.6652,-126 404.6652,-122 292.3348,-122 292.3348,-86 431.6652,-86 431.6652,-122"/>
<text text-anchor="middle" x="362" y="-99.8" font-family="Times,serif" font-size="14.00" fill="#000000">AboutRoutingModule</text>
</g>
<!-- AboutRoutingModule&#45;&gt;AboutModule -->
<g id="edge3" class="edge">
<title>AboutRoutingModule&#45;&gt;AboutModule</title>
<path fill="none" stroke="#000000" d="M362,-122.1061C362,-122.1061 362,-140.991 362,-140.991"/>
<polygon fill="#000000" stroke="#000000" points="358.5001,-140.9909 362,-150.991 365.5001,-140.991 358.5001,-140.9909"/>
</g>
<!-- SharedModule -->
<g id="node5" class="node">
<title>SharedModule</title>
<polygon fill="#8dd3c7" stroke="#000000" points="274.4231,-122 271.4231,-126 250.4231,-126 247.4231,-122 175.5769,-122 175.5769,-86 274.4231,-86 274.4231,-122"/>
<text text-anchor="middle" x="225" y="-99.8" font-family="Times,serif" font-size="14.00" fill="#000000">SharedModule</text>
</g>
<!-- SharedModule&#45;&gt;AboutModule -->
<g id="edge4" class="edge">
<title>SharedModule&#45;&gt;AboutModule</title>
<path fill="none" stroke="#000000" d="M225,-122.0225C225,-139.3734 225,-163 225,-163 225,-163 304.8524,-163 304.8524,-163"/>
<polygon fill="#000000" stroke="#000000" points="304.8524,-166.5001 314.8524,-163 304.8523,-159.5001 304.8524,-166.5001"/>
</g>
<!-- AboutService -->
<g id="node6" class="node">
<title>AboutService</title>
<ellipse fill="#fdb462" stroke="#000000" cx="88" cy="-104" rx="64.2649" ry="18"/>
<text text-anchor="middle" x="88" y="-99.8" font-family="Times,serif" font-size="14.00" fill="#000000">AboutService</text>
</g>
<!-- AboutService&#45;&gt;AboutModule -->
<g id="edge5" class="edge">
<title>AboutService&#45;&gt;AboutModule</title>
<path fill="none" stroke="#000000" d="M88,-122.2843C88,-143.3211 88,-175 88,-175 88,-175 304.8977,-175 304.8977,-175"/>
<polygon fill="#000000" stroke="#000000" points="304.8978,-178.5001 314.8977,-175 304.8977,-171.5001 304.8978,-178.5001"/>
</g>
</g>
</svg>
