<?xml version="1.0" encoding="UTF-8" standalone="no"?>
<!DOCTYPE svg PUBLIC "-//W3C//DTD SVG 1.1//EN"
 "http://www.w3.org/Graphics/SVG/1.1/DTD/svg11.dtd">
<!-- Generated by graphviz version 2.40.1 (20161225.0304)
 -->
<!-- Title: dependencies Pages: 1 -->
<svg width="1636pt" height="211pt"
 viewBox="0.00 0.00 1636.00 211.00" xmlns="http://www.w3.org/2000/svg" xmlns:xlink="http://www.w3.org/1999/xlink">
<g id="graph0" class="graph" transform="scale(1 1) rotate(0) translate(4 207)">
<title>dependencies</title>
<polygon fill="#ffffff" stroke="transparent" points="-4,4 -4,-207 1632,-207 1632,4 -4,4"/>
<text text-anchor="start" x="793.0091" y="-42.4" font-family="sans-serif" font-weight="bold" font-size="14.00" fill="#000000">Legend</text>
<polygon fill="#ffffb3" stroke="transparent" points="580,-10 580,-30 600,-30 600,-10 580,-10"/>
<text text-anchor="start" x="603.629" y="-15.4" font-family="sans-serif" font-size="14.00" fill="#000000"> &#160;Declarations</text>
<polygon fill="#8dd3c7" stroke="transparent" points="693,-10 693,-30 713,-30 713,-10 693,-10"/>
<text text-anchor="start" x="716.7251" y="-15.4" font-family="sans-serif" font-size="14.00" fill="#000000"> &#160;Module</text>
<polygon fill="#80b1d3" stroke="transparent" points="779,-10 779,-30 799,-30 799,-10 779,-10"/>
<text text-anchor="start" x="802.7812" y="-15.4" font-family="sans-serif" font-size="14.00" fill="#000000"> &#160;Bootstrap</text>
<polygon fill="#fdb462" stroke="transparent" points="876,-10 876,-30 896,-30 896,-10 876,-10"/>
<text text-anchor="start" x="899.6732" y="-15.4" font-family="sans-serif" font-size="14.00" fill="#000000"> &#160;Providers</text>
<polygon fill="#fb8072" stroke="transparent" points="972,-10 972,-30 992,-30 992,-10 972,-10"/>
<text text-anchor="start" x="995.7258" y="-15.4" font-family="sans-serif" font-size="14.00" fill="#000000"> &#160;Exports</text>
<g id="clust1" class="cluster">
<title>cluster_JobsModule</title>
<polygon fill="none" stroke="#000000" stroke-dasharray="1,5" points="8,-70 8,-195 1620,-195 1620,-70 8,-70"/>
</g>
<g id="clust2" class="cluster">
<title>cluster_JobsModule_declarations</title>
<polygon fill="none" stroke="#000000" points="424,-78 424,-130 1612,-130 1612,-78 424,-78"/>
</g>
<g id="clust9" class="cluster">
<title>cluster_JobsModule_imports</title>
<polygon fill="none" stroke="#000000" points="154,-78 154,-130 416,-130 416,-78 154,-78"/>
</g>
<g id="clust12" class="cluster">
<title>cluster_JobsModule_providers</title>
<polygon fill="none" stroke="#000000" points="16,-78 16,-130 146,-130 146,-78 16,-78"/>
</g>
<!-- JobsComponent -->
<g id="node1" class="node">
<title>JobsComponent</title>
<polygon fill="#ffffb3" stroke="#000000" points="1604.2218,-122 1497.7782,-122 1497.7782,-86 1604.2218,-86 1604.2218,-122"/>
<text text-anchor="middle" x="1551" y="-99.8" font-family="Times,serif" font-size="14.00" fill="#000000">JobsComponent</text>
</g>
<!-- JobsModule -->
<g id="node7" class="node">
<title>JobsModule</title>
<polygon fill="#8dd3c7" stroke="#000000" points="805.4401,-187 802.4401,-191 781.4401,-191 778.4401,-187 720.5599,-187 720.5599,-151 805.4401,-151 805.4401,-187"/>
<text text-anchor="middle" x="763" y="-164.8" font-family="Times,serif" font-size="14.00" fill="#000000">JobsModule</text>
</g>
<!-- JobsComponent&#45;&gt;JobsModule -->
<g id="edge1" class="edge">
<title>JobsComponent&#45;&gt;JobsModule</title>
<path fill="none" stroke="#000000" d="M1551,-122.0109C1551,-144.4852 1551,-180 1551,-180 1551,-180 815.3663,-180 815.3663,-180"/>
<polygon fill="#000000" stroke="#000000" points="815.3663,-176.5001 805.3663,-180 815.3663,-183.5001 815.3663,-176.5001"/>
</g>
<!-- JobExecutionStatusComponent -->
<g id="node2" class="node">
<title>JobExecutionStatusComponent</title>
<polygon fill="#ffffb3" stroke="#000000" points="1479.7631,-122 1288.2369,-122 1288.2369,-86 1479.7631,-86 1479.7631,-122"/>
<text text-anchor="middle" x="1384" y="-99.8" font-family="Times,serif" font-size="14.00" fill="#000000">JobExecutionStatusComponent</text>
</g>
<!-- JobExecutionStatusComponent&#45;&gt;JobsModule -->
<g id="edge2" class="edge">
<title>JobExecutionStatusComponent&#45;&gt;JobsModule</title>
<path fill="none" stroke="#000000" d="M1384,-122.1289C1384,-142.5724 1384,-173 1384,-173 1384,-173 815.6838,-173 815.6838,-173"/>
<polygon fill="#000000" stroke="#000000" points="815.6839,-169.5001 805.6838,-173 815.6838,-176.5001 815.6839,-169.5001"/>
</g>
<!-- DefinitionStatusComponent -->
<g id="node3" class="node">
<title>DefinitionStatusComponent</title>
<polygon fill="#ffffb3" stroke="#000000" points="1270.5996,-122 1097.4004,-122 1097.4004,-86 1270.5996,-86 1270.5996,-122"/>
<text text-anchor="middle" x="1184" y="-99.8" font-family="Times,serif" font-size="14.00" fill="#000000">DefinitionStatusComponent</text>
</g>
<!-- DefinitionStatusComponent&#45;&gt;JobsModule -->
<g id="edge3" class="edge">
<title>DefinitionStatusComponent&#45;&gt;JobsModule</title>
<path fill="none" stroke="#000000" d="M1184,-122.2667C1184,-140.5552 1184,-166 1184,-166 1184,-166 815.2947,-166 815.2947,-166"/>
<polygon fill="#000000" stroke="#000000" points="815.2947,-162.5001 805.2947,-166 815.2946,-169.5001 815.2947,-162.5001"/>
</g>
<!-- JobExecutionDetailsComponent -->
<g id="node4" class="node">
<title>JobExecutionDetailsComponent</title>
<polygon fill="#ffffb3" stroke="#000000" points="1079.6923,-122 882.3077,-122 882.3077,-86 1079.6923,-86 1079.6923,-122"/>
<text text-anchor="middle" x="981" y="-99.8" font-family="Times,serif" font-size="14.00" fill="#000000">JobExecutionDetailsComponent</text>
</g>
<!-- JobExecutionDetailsComponent&#45;&gt;JobsModule -->
<g id="edge4" class="edge">
<title>JobExecutionDetailsComponent&#45;&gt;JobsModule</title>
<path fill="none" stroke="#000000" d="M981,-122.0091C981,-138.0494 981,-159 981,-159 981,-159 815.2911,-159 815.2911,-159"/>
<polygon fill="#000000" stroke="#000000" points="815.2911,-155.5001 805.2911,-159 815.291,-162.5001 815.2911,-155.5001"/>
</g>
<!-- StepExecutionDetailsComponent -->
<g id="node5" class="node">
<title>StepExecutionDetailsComponent</title>
<polygon fill="#ffffb3" stroke="#000000" points="864.1357,-122 661.8643,-122 661.8643,-86 864.1357,-86 864.1357,-122"/>
<text text-anchor="middle" x="763" y="-99.8" font-family="Times,serif" font-size="14.00" fill="#000000">StepExecutionDetailsComponent</text>
</g>
<!-- StepExecutionDetailsComponent&#45;&gt;JobsModule -->
<g id="edge5" class="edge">
<title>StepExecutionDetailsComponent&#45;&gt;JobsModule</title>
<path fill="none" stroke="#000000" d="M763,-122.1061C763,-122.1061 763,-140.991 763,-140.991"/>
<polygon fill="#000000" stroke="#000000" points="759.5001,-140.9909 763,-150.991 766.5001,-140.991 759.5001,-140.9909"/>
</g>
<!-- StepExecutionProgressComponent -->
<g id="node6" class="node">
<title>StepExecutionProgressComponent</title>
<polygon fill="#ffffb3" stroke="#000000" points="643.6909,-122 432.3091,-122 432.3091,-86 643.6909,-86 643.6909,-122"/>
<text text-anchor="middle" x="538" y="-99.8" font-family="Times,serif" font-size="14.00" fill="#000000">StepExecutionProgressComponent</text>
</g>
<!-- StepExecutionProgressComponent&#45;&gt;JobsModule -->
<g id="edge6" class="edge">
<title>StepExecutionProgressComponent&#45;&gt;JobsModule</title>
<path fill="none" stroke="#000000" d="M538,-122.0091C538,-138.0494 538,-159 538,-159 538,-159 710.6792,-159 710.6792,-159"/>
<polygon fill="#000000" stroke="#000000" points="710.6793,-162.5001 720.6792,-159 710.6792,-155.5001 710.6793,-162.5001"/>
</g>
<!-- JobsRoutingModule -->
<g id="node8" class="node">
<title>JobsRoutingModule</title>
<polygon fill="#8dd3c7" stroke="#000000" points="407.5576,-122 404.5576,-126 383.5576,-126 380.5576,-122 278.4424,-122 278.4424,-86 407.5576,-86 407.5576,-122"/>
<text text-anchor="middle" x="343" y="-99.8" font-family="Times,serif" font-size="14.00" fill="#000000">JobsRoutingModule</text>
</g>
<!-- JobsRoutingModule&#45;&gt;JobsModule -->
<g id="edge7" class="edge">
<title>JobsRoutingModule&#45;&gt;JobsModule</title>
<path fill="none" stroke="#000000" d="M343,-122.2667C343,-140.5552 343,-166 343,-166 343,-166 710.4168,-166 710.4168,-166"/>
<polygon fill="#000000" stroke="#000000" points="710.4169,-169.5001 720.4168,-166 710.4168,-162.5001 710.4169,-169.5001"/>
</g>
<!-- SharedModule -->
<g id="node9" class="node">
<title>SharedModule</title>
<polygon fill="#8dd3c7" stroke="#000000" points="260.4231,-122 257.4231,-126 236.4231,-126 233.4231,-122 161.5769,-122 161.5769,-86 260.4231,-86 260.4231,-122"/>
<text text-anchor="middle" x="211" y="-99.8" font-family="Times,serif" font-size="14.00" fill="#000000">SharedModule</text>
</g>
<!-- SharedModule&#45;&gt;JobsModule -->
<g id="edge8" class="edge">
<title>SharedModule&#45;&gt;JobsModule</title>
<path fill="none" stroke="#000000" d="M211,-122.1289C211,-142.5724 211,-173 211,-173 211,-173 710.6021,-173 710.6021,-173"/>
<polygon fill="#000000" stroke="#000000" points="710.6021,-176.5001 720.6021,-173 710.602,-169.5001 710.6021,-176.5001"/>
</g>
<!-- JobsService -->
<g id="node10" class="node">
<title>JobsService</title>
<ellipse fill="#fdb462" stroke="#000000" cx="81" cy="-104" rx="57.3205" ry="18"/>
<text text-anchor="middle" x="81" y="-99.8" font-family="Times,serif" font-size="14.00" fill="#000000">JobsService</text>
</g>
<!-- JobsService&#45;&gt;JobsModule -->
<g id="edge9" class="edge">
<title>JobsService&#45;&gt;JobsModule</title>
<path fill="none" stroke="#000000" d="M81,-122.0109C81,-144.4852 81,-180 81,-180 81,-180 710.5955,-180 710.5955,-180"/>
<polygon fill="#000000" stroke="#000000" points="710.5956,-183.5001 720.5955,-180 710.5955,-176.5001 710.5956,-183.5001"/>
</g>
</g>
</svg>
