<?xml version="1.0" encoding="UTF-8" standalone="no"?>
<!DOCTYPE svg PUBLIC "-//W3C//DTD SVG 1.1//EN"
 "http://www.w3.org/Graphics/SVG/1.1/DTD/svg11.dtd">
<!-- Generated by graphviz version 2.40.1 (20161225.0304)
 -->
<!-- Title: dependencies Pages: 1 -->
<svg width="2761pt" height="284pt"
 viewBox="0.00 0.00 2761.00 284.00" xmlns="http://www.w3.org/2000/svg" xmlns:xlink="http://www.w3.org/1999/xlink">
<g id="graph0" class="graph" transform="scale(1 1) rotate(0) translate(4 280)">
<title>dependencies</title>
<polygon fill="#ffffff" stroke="transparent" points="-4,4 -4,-280 2757,-280 2757,4 -4,4"/>
<text text-anchor="start" x="1355.5091" y="-42.4" font-family="sans-serif" font-weight="bold" font-size="14.00" fill="#000000">Legend</text>
<polygon fill="#ffffb3" stroke="transparent" points="1142.5,-10 1142.5,-30 1162.5,-30 1162.5,-10 1142.5,-10"/>
<text text-anchor="start" x="1166.129" y="-15.4" font-family="sans-serif" font-size="14.00" fill="#000000"> &#160;Declarations</text>
<polygon fill="#8dd3c7" stroke="transparent" points="1255.5,-10 1255.5,-30 1275.5,-30 1275.5,-10 1255.5,-10"/>
<text text-anchor="start" x="1279.2251" y="-15.4" font-family="sans-serif" font-size="14.00" fill="#000000"> &#160;Module</text>
<polygon fill="#80b1d3" stroke="transparent" points="1341.5,-10 1341.5,-30 1361.5,-30 1361.5,-10 1341.5,-10"/>
<text text-anchor="start" x="1365.2812" y="-15.4" font-family="sans-serif" font-size="14.00" fill="#000000"> &#160;Bootstrap</text>
<polygon fill="#fdb462" stroke="transparent" points="1438.5,-10 1438.5,-30 1458.5,-30 1458.5,-10 1438.5,-10"/>
<text text-anchor="start" x="1462.1732" y="-15.4" font-family="sans-serif" font-size="14.00" fill="#000000"> &#160;Providers</text>
<polygon fill="#fb8072" stroke="transparent" points="1534.5,-10 1534.5,-30 1554.5,-30 1554.5,-10 1534.5,-10"/>
<text text-anchor="start" x="1558.2258" y="-15.4" font-family="sans-serif" font-size="14.00" fill="#000000"> &#160;Exports</text>
<g id="clust1" class="cluster">
<title>cluster_AppsModule</title>
<polygon fill="none" stroke="#000000" stroke-dasharray="1,5" points="8,-70 8,-268 2745,-268 2745,-70 8,-70"/>
</g>
<g id="clust2" class="cluster">
<title>cluster_AppsModule_declarations</title>
<polygon fill="none" stroke="#000000" points="777,-78 777,-130 2737,-130 2737,-78 777,-78"/>
</g>
<g id="clust14" class="cluster">
<title>cluster_AppsModule_imports</title>
<polygon fill="none" stroke="#000000" points="397,-78 397,-130 769,-130 769,-78 397,-78"/>
</g>
<g id="clust15" class="cluster">
<title>cluster_AppsModule_exports</title>
<polygon fill="none" stroke="#000000" points="1196,-208 1196,-260 1553,-260 1553,-208 1196,-208"/>
</g>
<g id="clust17" class="cluster">
<title>cluster_AppsModule_providers</title>
<polygon fill="none" stroke="#000000" points="16,-78 16,-130 389,-130 389,-78 16,-78"/>
</g>
<!-- AppsComponent -->
<g id="node1" class="node">
<title>AppsComponent</title>
<polygon fill="#ffffb3" stroke="#000000" points="2729.3837,-122 2618.6163,-122 2618.6163,-86 2729.3837,-86 2729.3837,-122"/>
<text text-anchor="middle" x="2674" y="-99.8" font-family="Times,serif" font-size="14.00" fill="#000000">AppsComponent</text>
</g>
<!-- AppsModule -->
<g id="node12" class="node">
<title>AppsModule</title>
<polygon fill="#8dd3c7" stroke="#000000" points="1430.6011,-187 1427.6011,-191 1406.6011,-191 1403.6011,-187 1341.3989,-187 1341.3989,-151 1430.6011,-151 1430.6011,-187"/>
<text text-anchor="middle" x="1386" y="-164.8" font-family="Times,serif" font-size="14.00" fill="#000000">AppsModule</text>
</g>
<!-- AppsComponent&#45;&gt;AppsModule -->
<g id="edge1" class="edge">
<title>AppsComponent&#45;&gt;AppsModule</title>
<path fill="none" stroke="#000000" d="M2674,-122.3228C2674,-145.6602 2674,-183 2674,-183 2674,-183 1440.7099,-183 1440.7099,-183"/>
<polygon fill="#000000" stroke="#000000" points="1440.7099,-179.5001 1430.7099,-183 1440.7099,-186.5001 1440.7099,-179.5001"/>
</g>
<!-- AppsAddComponent -->
<g id="node2" class="node">
<title>AppsAddComponent</title>
<polygon fill="#ffffb3" stroke="#000000" points="2600.4902,-122 2465.5098,-122 2465.5098,-86 2600.4902,-86 2600.4902,-122"/>
<text text-anchor="middle" x="2533" y="-99.8" font-family="Times,serif" font-size="14.00" fill="#000000">AppsAddComponent</text>
</g>
<!-- AppsAddComponent&#45;&gt;AppsModule -->
<g id="edge2" class="edge">
<title>AppsAddComponent&#45;&gt;AppsModule</title>
<path fill="none" stroke="#000000" d="M2533,-122.2921C2533,-144.2057 2533,-178 2533,-178 2533,-178 1440.6117,-178 1440.6117,-178"/>
<polygon fill="#000000" stroke="#000000" points="1440.6118,-174.5001 1430.6117,-178 1440.6117,-181.5001 1440.6118,-174.5001"/>
</g>
<!-- AppsRegisterComponent -->
<g id="node3" class="node">
<title>AppsRegisterComponent</title>
<polygon fill="#ffffb3" stroke="#000000" points="2447.5365,-122 2290.4635,-122 2290.4635,-86 2447.5365,-86 2447.5365,-122"/>
<text text-anchor="middle" x="2369" y="-99.8" font-family="Times,serif" font-size="14.00" fill="#000000">AppsRegisterComponent</text>
</g>
<!-- AppsRegisterComponent&#45;&gt;AppsModule -->
<g id="edge3" class="edge">
<title>AppsRegisterComponent&#45;&gt;AppsModule</title>
<path fill="none" stroke="#000000" d="M2369,-122.0267C2369,-142.7672 2369,-174 2369,-174 2369,-174 1440.7918,-174 1440.7918,-174"/>
<polygon fill="#000000" stroke="#000000" points="1440.7918,-170.5001 1430.7918,-174 1440.7918,-177.5001 1440.7918,-170.5001"/>
</g>
<!-- AppDetailsComponent -->
<g id="node4" class="node">
<title>AppDetailsComponent</title>
<polygon fill="#ffffb3" stroke="#000000" points="2272.5912,-122 2127.4088,-122 2127.4088,-86 2272.5912,-86 2272.5912,-122"/>
<text text-anchor="middle" x="2200" y="-99.8" font-family="Times,serif" font-size="14.00" fill="#000000">AppDetailsComponent</text>
</g>
<!-- AppDetailsComponent&#45;&gt;AppsModule -->
<g id="edge4" class="edge">
<title>AppDetailsComponent&#45;&gt;AppsModule</title>
<path fill="none" stroke="#000000" d="M2200,-122.1061C2200,-141.3391 2200,-169 2200,-169 2200,-169 1440.6325,-169 1440.6325,-169"/>
<polygon fill="#000000" stroke="#000000" points="1440.6326,-165.5001 1430.6325,-169 1440.6325,-172.5001 1440.6326,-165.5001"/>
</g>
<!-- AppsUnregisterComponent -->
<g id="node5" class="node">
<title>AppsUnregisterComponent</title>
<polygon fill="#ffffb3" stroke="#000000" points="2108.9664,-122 1939.0336,-122 1939.0336,-86 2108.9664,-86 2108.9664,-122"/>
<text text-anchor="middle" x="2024" y="-99.8" font-family="Times,serif" font-size="14.00" fill="#000000">AppsUnregisterComponent</text>
</g>
<!-- AppsUnregisterComponent&#45;&gt;AppsModule -->
<g id="edge5" class="edge">
<title>AppsUnregisterComponent&#45;&gt;AppsModule</title>
<path fill="none" stroke="#000000" d="M2024,-122.302C2024,-140.2699 2024,-165 2024,-165 2024,-165 1440.6093,-165 1440.6093,-165"/>
<polygon fill="#000000" stroke="#000000" points="1440.6094,-161.5001 1430.6093,-165 1440.6093,-168.5001 1440.6094,-161.5001"/>
</g>
<!-- AppTypeComponent -->
<g id="node6" class="node">
<title>AppTypeComponent</title>
<polygon fill="#ffffb3" stroke="#000000" points="1921.2064,-122 1786.7936,-122 1786.7936,-86 1921.2064,-86 1921.2064,-122"/>
<text text-anchor="middle" x="1854" y="-99.8" font-family="Times,serif" font-size="14.00" fill="#000000">AppTypeComponent</text>
</g>
<!-- AppTypeComponent&#45;&gt;AppsModule -->
<g id="edge6" class="edge">
<title>AppTypeComponent&#45;&gt;AppsModule</title>
<path fill="none" stroke="#000000" d="M1854,-122.027C1854,-138.3976 1854,-160 1854,-160 1854,-160 1440.8738,-160 1440.8738,-160"/>
<polygon fill="#000000" stroke="#000000" points="1440.8738,-156.5001 1430.8738,-160 1440.8738,-163.5001 1440.8738,-156.5001"/>
</g>
<!-- AppVersionLabelComponent -->
<g id="node7" class="node">
<title>AppVersionLabelComponent</title>
<polygon fill="#ffffb3" stroke="#000000" points="1768.6288,-122 1587.3712,-122 1587.3712,-86 1768.6288,-86 1768.6288,-122"/>
<text text-anchor="middle" x="1678" y="-99.8" font-family="Times,serif" font-size="14.00" fill="#000000">AppVersionLabelComponent</text>
</g>
<!-- AppVersionLabelComponent&#45;&gt;AppsModule -->
<g id="edge7" class="edge">
<title>AppVersionLabelComponent&#45;&gt;AppsModule</title>
<path fill="none" stroke="#000000" d="M1678,-122.1871C1678,-137.1824 1678,-156 1678,-156 1678,-156 1440.6664,-156 1440.6664,-156"/>
<polygon fill="#000000" stroke="#000000" points="1440.6664,-152.5001 1430.6664,-156 1440.6663,-159.5001 1440.6664,-152.5001"/>
</g>
<!-- AppVersionsComponent -->
<g id="node8" class="node">
<title>AppVersionsComponent</title>
<polygon fill="#ffffb3" stroke="#000000" points="1569.7007,-122 1414.2993,-122 1414.2993,-86 1569.7007,-86 1569.7007,-122"/>
<text text-anchor="middle" x="1492" y="-99.8" font-family="Times,serif" font-size="14.00" fill="#000000">AppVersionsComponent</text>
</g>
<!-- AppVersionsComponent&#45;&gt;AppsModule -->
<g id="edge8" class="edge">
<title>AppVersionsComponent&#45;&gt;AppsModule</title>
<path fill="none" stroke="#000000" d="M1422.4751,-122.1061C1422.4751,-122.1061 1422.4751,-140.991 1422.4751,-140.991"/>
<polygon fill="#000000" stroke="#000000" points="1418.9752,-140.9909 1422.4751,-150.991 1425.9752,-140.991 1418.9752,-140.9909"/>
</g>
<!-- AppsBulkImportPropertiesComponent -->
<g id="node9" class="node">
<title>AppsBulkImportPropertiesComponent</title>
<polygon fill="#ffffb3" stroke="#000000" points="1396.472,-122 1163.528,-122 1163.528,-86 1396.472,-86 1396.472,-122"/>
<text text-anchor="middle" x="1280" y="-99.8" font-family="Times,serif" font-size="14.00" fill="#000000">AppsBulkImportPropertiesComponent</text>
</g>
<!-- AppsBulkImportPropertiesComponent&#45;&gt;AppsModule -->
<g id="edge9" class="edge">
<title>AppsBulkImportPropertiesComponent&#45;&gt;AppsModule</title>
<path fill="none" stroke="#000000" d="M1368.9677,-122.1061C1368.9677,-122.1061 1368.9677,-140.991 1368.9677,-140.991"/>
<polygon fill="#000000" stroke="#000000" points="1365.4678,-140.9909 1368.9677,-150.991 1372.4678,-140.991 1365.4678,-140.9909"/>
</g>
<!-- AppsBulkImportUriComponent -->
<g id="node10" class="node">
<title>AppsBulkImportUriComponent</title>
<polygon fill="#ffffb3" stroke="#000000" points="1145.371,-122 950.629,-122 950.629,-86 1145.371,-86 1145.371,-122"/>
<text text-anchor="middle" x="1048" y="-99.8" font-family="Times,serif" font-size="14.00" fill="#000000">AppsBulkImportUriComponent</text>
</g>
<!-- AppsBulkImportUriComponent&#45;&gt;AppsModule -->
<g id="edge10" class="edge">
<title>AppsBulkImportUriComponent&#45;&gt;AppsModule</title>
<path fill="none" stroke="#000000" d="M1048,-122.1871C1048,-137.1824 1048,-156 1048,-156 1048,-156 1331.1162,-156 1331.1162,-156"/>
<polygon fill="#000000" stroke="#000000" points="1331.1162,-159.5001 1341.1162,-156 1331.1162,-152.5001 1331.1162,-159.5001"/>
</g>
<!-- AppListBarComponent -->
<g id="node11" class="node">
<title>AppListBarComponent</title>
<polygon fill="#ffffb3" stroke="#000000" points="932.9298,-122 785.0702,-122 785.0702,-86 932.9298,-86 932.9298,-122"/>
<text text-anchor="middle" x="859" y="-99.8" font-family="Times,serif" font-size="14.00" fill="#000000">AppListBarComponent</text>
</g>
<!-- AppListBarComponent&#45;&gt;AppsModule -->
<g id="edge11" class="edge">
<title>AppListBarComponent&#45;&gt;AppsModule</title>
<path fill="none" stroke="#000000" d="M859,-122.027C859,-138.3976 859,-160 859,-160 859,-160 1331.0683,-160 1331.0683,-160"/>
<polygon fill="#000000" stroke="#000000" points="1331.0683,-163.5001 1341.0683,-160 1331.0682,-156.5001 1331.0683,-163.5001"/>
</g>
<!-- AppTypeComponent  -->
<g id="node16" class="node">
<title>AppTypeComponent </title>
<polygon fill="#fb8072" stroke="#000000" points="1544.7065,-252 1407.2935,-252 1407.2935,-216 1544.7065,-216 1544.7065,-252"/>
<text text-anchor="middle" x="1476" y="-229.8" font-family="Times,serif" font-size="14.00" fill="#000000">AppTypeComponent </text>
</g>
<!-- AppsModule&#45;&gt;AppTypeComponent  -->
<g id="edge15" class="edge">
<title>AppsModule&#45;&gt;AppTypeComponent </title>
<path fill="none" stroke="#000000" stroke-dasharray="5,2" d="M1418.8487,-187.1061C1418.8487,-187.1061 1418.8487,-205.991 1418.8487,-205.991"/>
<polygon fill="#000000" stroke="#000000" points="1415.3488,-205.9909 1418.8487,-215.991 1422.3488,-205.991 1415.3488,-205.9909"/>
</g>
<!-- AppVersionLabelComponent  -->
<g id="node17" class="node">
<title>AppVersionLabelComponent </title>
<polygon fill="#fb8072" stroke="#000000" points="1389.6284,-252 1204.3716,-252 1204.3716,-216 1389.6284,-216 1389.6284,-252"/>
<text text-anchor="middle" x="1297" y="-229.8" font-family="Times,serif" font-size="14.00" fill="#000000">AppVersionLabelComponent </text>
</g>
<!-- AppsModule&#45;&gt;AppVersionLabelComponent  -->
<g id="edge16" class="edge">
<title>AppsModule&#45;&gt;AppVersionLabelComponent </title>
<path fill="none" stroke="#000000" stroke-dasharray="5,2" d="M1365.5069,-187.1061C1365.5069,-187.1061 1365.5069,-205.991 1365.5069,-205.991"/>
<polygon fill="#000000" stroke="#000000" points="1362.0069,-205.9909 1365.5069,-215.991 1369.0069,-205.991 1362.0069,-205.9909"/>
</g>
<!-- AppsRoutingModule -->
<g id="node13" class="node">
<title>AppsRoutingModule</title>
<polygon fill="#8dd3c7" stroke="#000000" points="761.219,-122 758.219,-126 737.219,-126 734.219,-122 626.781,-122 626.781,-86 761.219,-86 761.219,-122"/>
<text text-anchor="middle" x="694" y="-99.8" font-family="Times,serif" font-size="14.00" fill="#000000">AppsRoutingModule</text>
</g>
<!-- AppsRoutingModule&#45;&gt;AppsModule -->
<g id="edge12" class="edge">
<title>AppsRoutingModule&#45;&gt;AppsModule</title>
<path fill="none" stroke="#000000" d="M694,-122.302C694,-140.2699 694,-165 694,-165 694,-165 1331.3947,-165 1331.3947,-165"/>
<polygon fill="#000000" stroke="#000000" points="1331.3947,-168.5001 1341.3947,-165 1331.3947,-161.5001 1331.3947,-168.5001"/>
</g>
<!-- SharedModule -->
<g id="node14" class="node">
<title>SharedModule</title>
<polygon fill="#8dd3c7" stroke="#000000" points="609.4231,-122 606.4231,-126 585.4231,-126 582.4231,-122 510.5769,-122 510.5769,-86 609.4231,-86 609.4231,-122"/>
<text text-anchor="middle" x="560" y="-99.8" font-family="Times,serif" font-size="14.00" fill="#000000">SharedModule</text>
</g>
<!-- SharedModule&#45;&gt;AppsModule -->
<g id="edge13" class="edge">
<title>SharedModule&#45;&gt;AppsModule</title>
<path fill="none" stroke="#000000" d="M560,-122.1061C560,-141.3391 560,-169 560,-169 560,-169 1331.2978,-169 1331.2978,-169"/>
<polygon fill="#000000" stroke="#000000" points="1331.2978,-172.5001 1341.2978,-169 1331.2977,-165.5001 1331.2978,-172.5001"/>
</g>
<!-- AuthModule -->
<g id="node15" class="node">
<title>AuthModule</title>
<polygon fill="#8dd3c7" stroke="#000000" points="492.5482,-122 489.5482,-126 468.5482,-126 465.5482,-122 405.4518,-122 405.4518,-86 492.5482,-86 492.5482,-122"/>
<text text-anchor="middle" x="449" y="-99.8" font-family="Times,serif" font-size="14.00" fill="#000000">AuthModule</text>
</g>
<!-- AuthModule&#45;&gt;AppsModule -->
<g id="edge14" class="edge">
<title>AuthModule&#45;&gt;AppsModule</title>
<path fill="none" stroke="#000000" d="M449,-122.0267C449,-142.7672 449,-174 449,-174 449,-174 1331.4369,-174 1331.4369,-174"/>
<polygon fill="#000000" stroke="#000000" points="1331.4369,-177.5001 1341.4369,-174 1331.4369,-170.5001 1331.4369,-177.5001"/>
</g>
<!-- AppsService -->
<g id="node18" class="node">
<title>AppsService</title>
<ellipse fill="#fdb462" stroke="#000000" cx="321" cy="-104" rx="60.2518" ry="18"/>
<text text-anchor="middle" x="321" y="-99.8" font-family="Times,serif" font-size="14.00" fill="#000000">AppsService</text>
</g>
<!-- AppsService&#45;&gt;AppsModule -->
<g id="edge17" class="edge">
<title>AppsService&#45;&gt;AppsModule</title>
<path fill="none" stroke="#000000" d="M321,-122.2921C321,-144.2057 321,-178 321,-178 321,-178 1331.2569,-178 1331.2569,-178"/>
<polygon fill="#000000" stroke="#000000" points="1331.257,-181.5001 1341.2569,-178 1331.2569,-174.5001 1331.257,-181.5001"/>
</g>
<!-- AppsWorkaroundService -->
<g id="node19" class="node">
<title>AppsWorkaroundService</title>
<ellipse fill="#fdb462" stroke="#000000" cx="133" cy="-104" rx="109.3565" ry="18"/>
<text text-anchor="middle" x="133" y="-99.8" font-family="Times,serif" font-size="14.00" fill="#000000">AppsWorkaroundService</text>
</g>
<!-- AppsWorkaroundService&#45;&gt;AppsModule -->
<g id="edge18" class="edge">
<title>AppsWorkaroundService&#45;&gt;AppsModule</title>
<path fill="none" stroke="#000000" d="M133,-122.3228C133,-145.6602 133,-183 133,-183 133,-183 1331.4051,-183 1331.4051,-183"/>
<polygon fill="#000000" stroke="#000000" points="1331.4051,-186.5001 1341.4051,-183 1331.405,-179.5001 1331.4051,-186.5001"/>
</g>
</g>
</svg>
