<?xml version="1.0" encoding="UTF-8" standalone="no"?>
<!DOCTYPE svg PUBLIC "-//W3C//DTD SVG 1.1//EN"
 "http://www.w3.org/Graphics/SVG/1.1/DTD/svg11.dtd">
<!-- Generated by graphviz version 2.40.1 (20161225.0304)
 -->
<!-- Title: dependencies Pages: 1 -->
<svg width="6628pt" height="284pt"
 viewBox="0.00 0.00 6628.00 284.00" xmlns="http://www.w3.org/2000/svg" xmlns:xlink="http://www.w3.org/1999/xlink">
<g id="graph0" class="graph" transform="scale(1 1) rotate(0) translate(4 280)">
<title>dependencies</title>
<polygon fill="#ffffff" stroke="transparent" points="-4,4 -4,-280 6624,-280 6624,4 -4,4"/>
<text text-anchor="start" x="3289.0091" y="-42.4" font-family="sans-serif" font-weight="bold" font-size="14.00" fill="#000000">Legend</text>
<polygon fill="#ffffb3" stroke="transparent" points="3076,-10 3076,-30 3096,-30 3096,-10 3076,-10"/>
<text text-anchor="start" x="3099.629" y="-15.4" font-family="sans-serif" font-size="14.00" fill="#000000"> &#160;Declarations</text>
<polygon fill="#8dd3c7" stroke="transparent" points="3189,-10 3189,-30 3209,-30 3209,-10 3189,-10"/>
<text text-anchor="start" x="3212.7251" y="-15.4" font-family="sans-serif" font-size="14.00" fill="#000000"> &#160;Module</text>
<polygon fill="#80b1d3" stroke="transparent" points="3275,-10 3275,-30 3295,-30 3295,-10 3275,-10"/>
<text text-anchor="start" x="3298.7812" y="-15.4" font-family="sans-serif" font-size="14.00" fill="#000000"> &#160;Bootstrap</text>
<polygon fill="#fdb462" stroke="transparent" points="3372,-10 3372,-30 3392,-30 3392,-10 3372,-10"/>
<text text-anchor="start" x="3395.6732" y="-15.4" font-family="sans-serif" font-size="14.00" fill="#000000"> &#160;Providers</text>
<polygon fill="#fb8072" stroke="transparent" points="3468,-10 3468,-30 3488,-30 3488,-10 3468,-10"/>
<text text-anchor="start" x="3491.7258" y="-15.4" font-family="sans-serif" font-size="14.00" fill="#000000"> &#160;Exports</text>
<g id="clust1" class="cluster">
<title>cluster_StreamsModule</title>
<polygon fill="none" stroke="#000000" stroke-dasharray="1,5" points="8,-70 8,-268 6612,-268 6612,-70 8,-70"/>
</g>
<g id="clust2" class="cluster">
<title>cluster_StreamsModule_declarations</title>
<polygon fill="none" stroke="#000000" points="1587,-78 1587,-130 6604,-130 6604,-78 1587,-78"/>
</g>
<g id="clust28" class="cluster">
<title>cluster_StreamsModule_imports</title>
<polygon fill="none" stroke="#000000" points="1084,-78 1084,-130 1579,-130 1579,-78 1084,-78"/>
</g>
<g id="clust29" class="cluster">
<title>cluster_StreamsModule_exports</title>
<polygon fill="none" stroke="#000000" points="2994,-208 2994,-260 3168,-260 3168,-208 2994,-208"/>
</g>
<g id="clust31" class="cluster">
<title>cluster_StreamsModule_providers</title>
<polygon fill="none" stroke="#000000" points="16,-78 16,-130 1076,-130 1076,-78 16,-78"/>
</g>
<!-- StreamsComponent -->
<g id="node1" class="node">
<title>StreamsComponent</title>
<polygon fill="#ffffb3" stroke="#000000" points="6596.4313,-122 6469.5687,-122 6469.5687,-86 6596.4313,-86 6596.4313,-122"/>
<text text-anchor="middle" x="6533" y="-99.8" font-family="Times,serif" font-size="14.00" fill="#000000">StreamsComponent</text>
</g>
<!-- StreamsModule -->
<g id="node26" class="node">
<title>StreamsModule</title>
<polygon fill="#8dd3c7" stroke="#000000" points="3133.1486,-187 3130.1486,-191 3109.1486,-191 3106.1486,-187 3028.8514,-187 3028.8514,-151 3133.1486,-151 3133.1486,-187"/>
<text text-anchor="middle" x="3081" y="-164.8" font-family="Times,serif" font-size="14.00" fill="#000000">StreamsModule</text>
</g>
<!-- StreamsComponent&#45;&gt;StreamsModule -->
<g id="edge1" class="edge">
<title>StreamsComponent&#45;&gt;StreamsModule</title>
<path fill="none" stroke="#000000" d="M6533,-122.3802C6533,-146.2785 6533,-185 6533,-185 6533,-185 3143.157,-185 3143.157,-185"/>
<polygon fill="#000000" stroke="#000000" points="3143.157,-181.5001 3133.157,-185 3143.1569,-188.5001 3143.157,-181.5001"/>
</g>
<!-- StreamCreateComponent -->
<g id="node2" class="node">
<title>StreamCreateComponent</title>
<polygon fill="#ffffb3" stroke="#000000" points="6451.5183,-122 6294.4817,-122 6294.4817,-86 6451.5183,-86 6451.5183,-122"/>
<text text-anchor="middle" x="6373" y="-99.8" font-family="Times,serif" font-size="14.00" fill="#000000">StreamCreateComponent</text>
</g>
<!-- StreamCreateComponent&#45;&gt;StreamsModule -->
<g id="edge2" class="edge">
<title>StreamCreateComponent&#45;&gt;StreamsModule</title>
<path fill="none" stroke="#000000" d="M6373,-122.3228C6373,-145.6602 6373,-183 6373,-183 6373,-183 3143.3741,-183 3143.3741,-183"/>
<polygon fill="#000000" stroke="#000000" points="3143.3742,-179.5001 3133.3741,-183 3143.3741,-186.5001 3143.3742,-179.5001"/>
</g>
<!-- StreamComponent -->
<g id="node3" class="node">
<title>StreamComponent</title>
<polygon fill="#ffffb3" stroke="#000000" points="6276.486,-122 6155.514,-122 6155.514,-86 6276.486,-86 6276.486,-122"/>
<text text-anchor="middle" x="6216" y="-99.8" font-family="Times,serif" font-size="14.00" fill="#000000">StreamComponent</text>
</g>
<!-- StreamComponent&#45;&gt;StreamsModule -->
<g id="edge3" class="edge">
<title>StreamComponent&#45;&gt;StreamsModule</title>
<path fill="none" stroke="#000000" d="M6216,-122.2479C6216,-145.0179 6216,-181 6216,-181 6216,-181 3143.4464,-181 3143.4464,-181"/>
<polygon fill="#000000" stroke="#000000" points="3143.4464,-177.5001 3133.4464,-181 3143.4463,-184.5001 3143.4464,-177.5001"/>
</g>
<!-- StreamDeployComponent -->
<g id="node4" class="node">
<title>StreamDeployComponent</title>
<polygon fill="#ffffb3" stroke="#000000" points="6137.1979,-122 5974.8021,-122 5974.8021,-86 6137.1979,-86 6137.1979,-122"/>
<text text-anchor="middle" x="6056" y="-99.8" font-family="Times,serif" font-size="14.00" fill="#000000">StreamDeployComponent</text>
</g>
<!-- StreamDeployComponent&#45;&gt;StreamsModule -->
<g id="edge4" class="edge">
<title>StreamDeployComponent&#45;&gt;StreamsModule</title>
<path fill="none" stroke="#000000" d="M6056,-122.1554C6056,-144.3519 6056,-179 6056,-179 6056,-179 3143.2662,-179 3143.2662,-179"/>
<polygon fill="#000000" stroke="#000000" points="3143.2663,-175.5001 3133.2662,-179 3143.2662,-182.5001 3143.2663,-175.5001"/>
</g>
<!-- StreamCreateDialogComponent -->
<g id="node5" class="node">
<title>StreamCreateDialogComponent</title>
<polygon fill="#ffffb3" stroke="#000000" points="5956.6204,-122 5761.3796,-122 5761.3796,-86 5956.6204,-86 5956.6204,-122"/>
<text text-anchor="middle" x="5859" y="-99.8" font-family="Times,serif" font-size="14.00" fill="#000000">StreamCreateDialogComponent</text>
</g>
<!-- StreamCreateDialogComponent&#45;&gt;StreamsModule -->
<g id="edge5" class="edge">
<title>StreamCreateDialogComponent&#45;&gt;StreamsModule</title>
<path fill="none" stroke="#000000" d="M5859,-122.0449C5859,-143.6623 5859,-177 5859,-177 5859,-177 3143.4024,-177 3143.4024,-177"/>
<polygon fill="#000000" stroke="#000000" points="3143.4025,-173.5001 3133.4024,-177 3143.4024,-180.5001 3143.4025,-173.5001"/>
</g>
<!-- StreamPropertiesDialogComponent -->
<g id="node6" class="node">
<title>StreamPropertiesDialogComponent</title>
<polygon fill="#ffffb3" stroke="#000000" points="5742.8473,-122 5527.1527,-122 5527.1527,-86 5742.8473,-86 5742.8473,-122"/>
<text text-anchor="middle" x="5635" y="-99.8" font-family="Times,serif" font-size="14.00" fill="#000000">StreamPropertiesDialogComponent</text>
</g>
<!-- StreamPropertiesDialogComponent&#45;&gt;StreamsModule -->
<g id="edge6" class="edge">
<title>StreamPropertiesDialogComponent&#45;&gt;StreamsModule</title>
<path fill="none" stroke="#000000" d="M5635,-122.2843C5635,-143.3211 5635,-175 5635,-175 5635,-175 3143.1745,-175 3143.1745,-175"/>
<polygon fill="#000000" stroke="#000000" points="3143.1745,-171.5001 3133.1745,-175 3143.1744,-178.5001 3143.1745,-171.5001"/>
</g>
<!-- NodeComponent -->
<g id="node7" class="node">
<title>NodeComponent</title>
<polygon fill="#ffffb3" stroke="#000000" points="5508.6541,-122 5397.3459,-122 5397.3459,-86 5508.6541,-86 5508.6541,-122"/>
<text text-anchor="middle" x="5453" y="-99.8" font-family="Times,serif" font-size="14.00" fill="#000000">NodeComponent</text>
</g>
<!-- NodeComponent&#45;&gt;StreamsModule -->
<g id="edge7" class="edge">
<title>NodeComponent&#45;&gt;StreamsModule</title>
<path fill="none" stroke="#000000" d="M5453,-122.1289C5453,-142.5724 5453,-173 5453,-173 5453,-173 3143.307,-173 3143.307,-173"/>
<polygon fill="#000000" stroke="#000000" points="3143.3071,-169.5001 3133.307,-173 3143.307,-176.5001 3143.3071,-169.5001"/>
</g>
<!-- StreamGraphDefinitionComponent -->
<g id="node8" class="node">
<title>StreamGraphDefinitionComponent</title>
<polygon fill="#ffffb3" stroke="#000000" points="5378.5126,-122 5165.4874,-122 5165.4874,-86 5378.5126,-86 5378.5126,-122"/>
<text text-anchor="middle" x="5272" y="-99.8" font-family="Times,serif" font-size="14.00" fill="#000000">StreamGraphDefinitionComponent</text>
</g>
<!-- StreamGraphDefinitionComponent&#45;&gt;StreamsModule -->
<g id="edge8" class="edge">
<title>StreamGraphDefinitionComponent&#45;&gt;StreamsModule</title>
<path fill="none" stroke="#000000" d="M5272,-122.308C5272,-142.1455 5272,-171 5272,-171 5272,-171 3143.2667,-171 3143.2667,-171"/>
<polygon fill="#000000" stroke="#000000" points="3143.2667,-167.5001 3133.2667,-171 3143.2667,-174.5001 3143.2667,-167.5001"/>
</g>
<!-- InstanceDotComponent -->
<g id="node9" class="node">
<title>InstanceDotComponent</title>
<polygon fill="#ffffb3" stroke="#000000" points="5147.4692,-122 4998.5308,-122 4998.5308,-86 5147.4692,-86 5147.4692,-122"/>
<text text-anchor="middle" x="5073" y="-99.8" font-family="Times,serif" font-size="14.00" fill="#000000">InstanceDotComponent</text>
</g>
<!-- InstanceDotComponent&#45;&gt;StreamsModule -->
<g id="edge9" class="edge">
<title>InstanceDotComponent&#45;&gt;StreamsModule</title>
<path fill="none" stroke="#000000" d="M5073,-122.1061C5073,-141.3391 5073,-169 5073,-169 5073,-169 3143.2573,-169 3143.2573,-169"/>
<polygon fill="#000000" stroke="#000000" points="3143.2573,-165.5001 3133.2573,-169 3143.2572,-172.5001 3143.2573,-165.5001"/>
</g>
<!-- MessageRateComponent -->
<g id="node10" class="node">
<title>MessageRateComponent</title>
<polygon fill="#ffffb3" stroke="#000000" points="4980.9664,-122 4825.0336,-122 4825.0336,-86 4980.9664,-86 4980.9664,-122"/>
<text text-anchor="middle" x="4903" y="-99.8" font-family="Times,serif" font-size="14.00" fill="#000000">MessageRateComponent</text>
</g>
<!-- MessageRateComponent&#45;&gt;StreamsModule -->
<g id="edge10" class="edge">
<title>MessageRateComponent&#45;&gt;StreamsModule</title>
<path fill="none" stroke="#000000" d="M4903,-122.2222C4903,-140.8285 4903,-167 4903,-167 4903,-167 3143.564,-167 3143.564,-167"/>
<polygon fill="#000000" stroke="#000000" points="3143.564,-163.5001 3133.564,-167 3143.5639,-170.5001 3143.564,-163.5001"/>
</g>
<!-- DeploymentPropertiesComponent -->
<g id="node11" class="node">
<title>DeploymentPropertiesComponent</title>
<polygon fill="#ffffb3" stroke="#000000" points="4806.799,-122 4599.201,-122 4599.201,-86 4806.799,-86 4806.799,-122"/>
<text text-anchor="middle" x="4703" y="-99.8" font-family="Times,serif" font-size="14.00" fill="#000000">DeploymentPropertiesComponent</text>
</g>
<!-- DeploymentPropertiesComponent&#45;&gt;StreamsModule -->
<g id="edge11" class="edge">
<title>DeploymentPropertiesComponent&#45;&gt;StreamsModule</title>
<path fill="none" stroke="#000000" d="M4703,-122.302C4703,-140.2699 4703,-165 4703,-165 4703,-165 3143.5863,-165 3143.5863,-165"/>
<polygon fill="#000000" stroke="#000000" points="3143.5864,-161.5001 3133.5863,-165 3143.5863,-168.5001 3143.5864,-161.5001"/>
</g>
<!-- DeploymentPropertiesInfoComponent -->
<g id="node12" class="node">
<title>DeploymentPropertiesInfoComponent</title>
<polygon fill="#ffffb3" stroke="#000000" points="4581.1203,-122 4350.8797,-122 4350.8797,-86 4581.1203,-86 4581.1203,-122"/>
<text text-anchor="middle" x="4466" y="-99.8" font-family="Times,serif" font-size="14.00" fill="#000000">DeploymentPropertiesInfoComponent</text>
</g>
<!-- DeploymentPropertiesInfoComponent&#45;&gt;StreamsModule -->
<g id="edge12" class="edge">
<title>DeploymentPropertiesInfoComponent&#45;&gt;StreamsModule</title>
<path fill="none" stroke="#000000" d="M4466,-122.0225C4466,-139.3734 4466,-163 4466,-163 4466,-163 3143.1834,-163 3143.1834,-163"/>
<polygon fill="#000000" stroke="#000000" points="3143.1834,-159.5001 3133.1834,-163 3143.1834,-166.5001 3143.1834,-159.5001"/>
</g>
<!-- StreamsDeployComponent -->
<g id="node13" class="node">
<title>StreamsDeployComponent</title>
<polygon fill="#ffffb3" stroke="#000000" points="4332.6428,-122 4165.3572,-122 4165.3572,-86 4332.6428,-86 4332.6428,-122"/>
<text text-anchor="middle" x="4249" y="-99.8" font-family="Times,serif" font-size="14.00" fill="#000000">StreamsDeployComponent</text>
</g>
<!-- StreamsDeployComponent&#45;&gt;StreamsModule -->
<g id="edge13" class="edge">
<title>StreamsDeployComponent&#45;&gt;StreamsModule</title>
<path fill="none" stroke="#000000" d="M4249,-122.0352C4249,-138.7344 4249,-161 4249,-161 4249,-161 3143.4556,-161 3143.4556,-161"/>
<polygon fill="#000000" stroke="#000000" points="3143.4556,-157.5001 3133.4556,-161 3143.4556,-164.5001 3143.4556,-157.5001"/>
</g>
<!-- StreamDeployAppPropertiesComponent -->
<g id="node14" class="node">
<title>StreamDeployAppPropertiesComponent</title>
<polygon fill="#ffffb3" stroke="#000000" points="4147.5632,-122 3904.4368,-122 3904.4368,-86 4147.5632,-86 4147.5632,-122"/>
<text text-anchor="middle" x="4026" y="-99.8" font-family="Times,serif" font-size="14.00" fill="#000000">StreamDeployAppPropertiesComponent</text>
</g>
<!-- StreamDeployAppPropertiesComponent&#45;&gt;StreamsModule -->
<g id="edge14" class="edge">
<title>StreamDeployAppPropertiesComponent&#45;&gt;StreamsModule</title>
<path fill="none" stroke="#000000" d="M4026,-122.0091C4026,-138.0494 4026,-159 4026,-159 4026,-159 3143.1534,-159 3143.1534,-159"/>
<polygon fill="#000000" stroke="#000000" points="3143.1534,-155.5001 3133.1534,-159 3143.1533,-162.5001 3143.1534,-155.5001"/>
</g>
<!-- StreamDeployPropertiesDebugComponent -->
<g id="node15" class="node">
<title>StreamDeployPropertiesDebugComponent</title>
<polygon fill="#ffffb3" stroke="#000000" points="3886.278,-122 3629.722,-122 3629.722,-86 3886.278,-86 3886.278,-122"/>
<text text-anchor="middle" x="3758" y="-99.8" font-family="Times,serif" font-size="14.00" fill="#000000">StreamDeployPropertiesDebugComponent</text>
</g>
<!-- StreamDeployPropertiesDebugComponent&#45;&gt;StreamsModule -->
<g id="edge15" class="edge">
<title>StreamDeployPropertiesDebugComponent&#45;&gt;StreamsModule</title>
<path fill="none" stroke="#000000" d="M3758,-122.2396C3758,-137.5706 3758,-157 3758,-157 3758,-157 3143.279,-157 3143.279,-157"/>
<polygon fill="#000000" stroke="#000000" points="3143.279,-153.5001 3133.279,-157 3143.279,-160.5001 3143.279,-153.5001"/>
</g>
<!-- StreamDeployFreeTextComponent -->
<g id="node16" class="node">
<title>StreamDeployFreeTextComponent</title>
<polygon fill="#ffffb3" stroke="#000000" points="3611.2282,-122 3398.7718,-122 3398.7718,-86 3611.2282,-86 3611.2282,-122"/>
<text text-anchor="middle" x="3505" y="-99.8" font-family="Times,serif" font-size="14.00" fill="#000000">StreamDeployFreeTextComponent</text>
</g>
<!-- StreamDeployFreeTextComponent&#45;&gt;StreamsModule -->
<g id="edge16" class="edge">
<title>StreamDeployFreeTextComponent&#45;&gt;StreamsModule</title>
<path fill="none" stroke="#000000" d="M3505,-122.1243C3505,-136.7832 3505,-155 3505,-155 3505,-155 3143.416,-155 3143.416,-155"/>
<polygon fill="#000000" stroke="#000000" points="3143.416,-151.5001 3133.416,-155 3143.4159,-158.5001 3143.416,-151.5001"/>
</g>
<!-- StreamDeployBuilderComponent -->
<g id="node17" class="node">
<title>StreamDeployBuilderComponent</title>
<polygon fill="#ffffb3" stroke="#000000" points="3381.1909,-122 3176.8091,-122 3176.8091,-86 3381.1909,-86 3381.1909,-122"/>
<text text-anchor="middle" x="3279" y="-99.8" font-family="Times,serif" font-size="14.00" fill="#000000">StreamDeployBuilderComponent</text>
</g>
<!-- StreamDeployBuilderComponent&#45;&gt;StreamsModule -->
<g id="edge17" class="edge">
<title>StreamDeployBuilderComponent&#45;&gt;StreamsModule</title>
<path fill="none" stroke="#000000" d="M3279,-122.2458C3279,-136.1772 3279,-153 3279,-153 3279,-153 3143.2812,-153 3143.2812,-153"/>
<polygon fill="#000000" stroke="#000000" points="3143.2812,-149.5001 3133.2812,-153 3143.2811,-156.5001 3143.2812,-149.5001"/>
</g>
<!-- StreamGraphComponent -->
<g id="node18" class="node">
<title>StreamGraphComponent</title>
<polygon fill="#ffffb3" stroke="#000000" points="3158.9678,-122 3003.0322,-122 3003.0322,-86 3158.9678,-86 3158.9678,-122"/>
<text text-anchor="middle" x="3081" y="-99.8" font-family="Times,serif" font-size="14.00" fill="#000000">StreamGraphComponent</text>
</g>
<!-- StreamGraphComponent&#45;&gt;StreamsModule -->
<g id="edge18" class="edge">
<title>StreamGraphComponent&#45;&gt;StreamsModule</title>
<path fill="none" stroke="#000000" d="M3081,-122.1061C3081,-122.1061 3081,-140.991 3081,-140.991"/>
<polygon fill="#000000" stroke="#000000" points="3077.5001,-140.9909 3081,-150.991 3084.5001,-140.991 3077.5001,-140.9909"/>
</g>
<!-- StreamSummaryComponent -->
<g id="node19" class="node">
<title>StreamSummaryComponent</title>
<polygon fill="#ffffb3" stroke="#000000" points="2984.9255,-122 2809.0745,-122 2809.0745,-86 2984.9255,-86 2984.9255,-122"/>
<text text-anchor="middle" x="2897" y="-99.8" font-family="Times,serif" font-size="14.00" fill="#000000">StreamSummaryComponent</text>
</g>
<!-- StreamSummaryComponent&#45;&gt;StreamsModule -->
<g id="edge19" class="edge">
<title>StreamSummaryComponent&#45;&gt;StreamsModule</title>
<path fill="none" stroke="#000000" d="M2897,-122.2458C2897,-136.1772 2897,-153 2897,-153 2897,-153 3018.7652,-153 3018.7652,-153"/>
<polygon fill="#000000" stroke="#000000" points="3018.7652,-156.5001 3028.7652,-153 3018.7651,-149.5001 3018.7652,-156.5001"/>
</g>
<!-- StreamStatusComponent -->
<g id="node20" class="node">
<title>StreamStatusComponent</title>
<polygon fill="#ffffb3" stroke="#000000" points="2791.7091,-122 2636.2909,-122 2636.2909,-86 2791.7091,-86 2791.7091,-122"/>
<text text-anchor="middle" x="2714" y="-99.8" font-family="Times,serif" font-size="14.00" fill="#000000">StreamStatusComponent</text>
</g>
<!-- StreamStatusComponent&#45;&gt;StreamsModule -->
<g id="edge20" class="edge">
<title>StreamStatusComponent&#45;&gt;StreamsModule</title>
<path fill="none" stroke="#000000" d="M2714,-122.1243C2714,-136.7832 2714,-155 2714,-155 2714,-155 3018.8076,-155 3018.8076,-155"/>
<polygon fill="#000000" stroke="#000000" points="3018.8076,-158.5001 3028.8076,-155 3018.8076,-151.5001 3018.8076,-158.5001"/>
</g>
<!-- StreamDeployBuilderErrorsComponent -->
<g id="node21" class="node">
<title>StreamDeployBuilderErrorsComponent</title>
<polygon fill="#ffffb3" stroke="#000000" points="2618.6699,-122 2379.3301,-122 2379.3301,-86 2618.6699,-86 2618.6699,-122"/>
<text text-anchor="middle" x="2499" y="-99.8" font-family="Times,serif" font-size="14.00" fill="#000000">StreamDeployBuilderErrorsComponent</text>
</g>
<!-- StreamDeployBuilderErrorsComponent&#45;&gt;StreamsModule -->
<g id="edge21" class="edge">
<title>StreamDeployBuilderErrorsComponent&#45;&gt;StreamsModule</title>
<path fill="none" stroke="#000000" d="M2499,-122.2396C2499,-137.5706 2499,-157 2499,-157 2499,-157 3018.8392,-157 3018.8392,-157"/>
<polygon fill="#000000" stroke="#000000" points="3018.8392,-160.5001 3028.8392,-157 3018.8392,-153.5001 3018.8392,-160.5001"/>
</g>
<!-- StreamsUndeployComponent -->
<g id="node22" class="node">
<title>StreamsUndeployComponent</title>
<polygon fill="#ffffb3" stroke="#000000" points="2361.6428,-122 2180.3572,-122 2180.3572,-86 2361.6428,-86 2361.6428,-122"/>
<text text-anchor="middle" x="2271" y="-99.8" font-family="Times,serif" font-size="14.00" fill="#000000">StreamsUndeployComponent</text>
</g>
<!-- StreamsUndeployComponent&#45;&gt;StreamsModule -->
<g id="edge22" class="edge">
<title>StreamsUndeployComponent&#45;&gt;StreamsModule</title>
<path fill="none" stroke="#000000" d="M2271,-122.0091C2271,-138.0494 2271,-159 2271,-159 2271,-159 3018.7886,-159 3018.7886,-159"/>
<polygon fill="#000000" stroke="#000000" points="3018.7886,-162.5001 3028.7886,-159 3018.7886,-155.5001 3018.7886,-162.5001"/>
</g>
<!-- StreamsDestroyComponent -->
<g id="node23" class="node">
<title>StreamsDestroyComponent</title>
<polygon fill="#ffffb3" stroke="#000000" points="2162.2478,-122 1991.7522,-122 1991.7522,-86 2162.2478,-86 2162.2478,-122"/>
<text text-anchor="middle" x="2077" y="-99.8" font-family="Times,serif" font-size="14.00" fill="#000000">StreamsDestroyComponent</text>
</g>
<!-- StreamsDestroyComponent&#45;&gt;StreamsModule -->
<g id="edge23" class="edge">
<title>StreamsDestroyComponent&#45;&gt;StreamsModule</title>
<path fill="none" stroke="#000000" d="M2077,-122.0352C2077,-138.7344 2077,-161 2077,-161 2077,-161 3018.785,-161 3018.785,-161"/>
<polygon fill="#000000" stroke="#000000" points="3018.785,-164.5001 3028.785,-161 3018.785,-157.5001 3018.785,-164.5001"/>
</g>
<!-- StreamHistoryComponent -->
<g id="node24" class="node">
<title>StreamHistoryComponent</title>
<polygon fill="#ffffb3" stroke="#000000" points="1973.479,-122 1810.521,-122 1810.521,-86 1973.479,-86 1973.479,-122"/>
<text text-anchor="middle" x="1892" y="-99.8" font-family="Times,serif" font-size="14.00" fill="#000000">StreamHistoryComponent</text>
</g>
<!-- StreamHistoryComponent&#45;&gt;StreamsModule -->
<g id="edge24" class="edge">
<title>StreamHistoryComponent&#45;&gt;StreamsModule</title>
<path fill="none" stroke="#000000" d="M1892,-122.0225C1892,-139.3734 1892,-163 1892,-163 1892,-163 3018.7614,-163 3018.7614,-163"/>
<polygon fill="#000000" stroke="#000000" points="3018.7615,-166.5001 3028.7614,-163 3018.7614,-159.5001 3018.7615,-166.5001"/>
</g>
<!-- StreamHistoryStatusComponent -->
<g id="node25" class="node">
<title>StreamHistoryStatusComponent</title>
<polygon fill="#ffffb3" stroke="#000000" points="1792.7021,-122 1595.2979,-122 1595.2979,-86 1792.7021,-86 1792.7021,-122"/>
<text text-anchor="middle" x="1694" y="-99.8" font-family="Times,serif" font-size="14.00" fill="#000000">StreamHistoryStatusComponent</text>
</g>
<!-- StreamHistoryStatusComponent&#45;&gt;StreamsModule -->
<g id="edge25" class="edge">
<title>StreamHistoryStatusComponent&#45;&gt;StreamsModule</title>
<path fill="none" stroke="#000000" d="M1694,-122.302C1694,-140.2699 1694,-165 1694,-165 1694,-165 3018.7413,-165 3018.7413,-165"/>
<polygon fill="#000000" stroke="#000000" points="3018.7413,-168.5001 3028.7413,-165 3018.7412,-161.5001 3018.7413,-168.5001"/>
</g>
<!-- StreamStatusComponent  -->
<g id="node31" class="node">
<title>StreamStatusComponent </title>
<polygon fill="#fb8072" stroke="#000000" points="3160.2093,-252 3001.7907,-252 3001.7907,-216 3160.2093,-216 3160.2093,-252"/>
<text text-anchor="middle" x="3081" y="-229.8" font-family="Times,serif" font-size="14.00" fill="#000000">StreamStatusComponent </text>
</g>
<!-- StreamsModule&#45;&gt;StreamStatusComponent  -->
<g id="edge30" class="edge">
<title>StreamsModule&#45;&gt;StreamStatusComponent </title>
<path fill="none" stroke="#000000" stroke-dasharray="5,2" d="M3081,-187.1061C3081,-187.1061 3081,-205.991 3081,-205.991"/>
<polygon fill="#000000" stroke="#000000" points="3077.5001,-205.9909 3081,-215.991 3084.5001,-205.991 3077.5001,-205.9909"/>
</g>
<!-- StreamsRoutingModule -->
<g id="node27" class="node">
<title>StreamsRoutingModule</title>
<polygon fill="#8dd3c7" stroke="#000000" points="1570.766,-122 1567.766,-126 1546.766,-126 1543.766,-122 1421.234,-122 1421.234,-86 1570.766,-86 1570.766,-122"/>
<text text-anchor="middle" x="1496" y="-99.8" font-family="Times,serif" font-size="14.00" fill="#000000">StreamsRoutingModule</text>
</g>
<!-- StreamsRoutingModule&#45;&gt;StreamsModule -->
<g id="edge26" class="edge">
<title>StreamsRoutingModule&#45;&gt;StreamsModule</title>
<path fill="none" stroke="#000000" d="M1496,-122.2222C1496,-140.8285 1496,-167 1496,-167 1496,-167 3018.7157,-167 3018.7157,-167"/>
<polygon fill="#000000" stroke="#000000" points="3018.7157,-170.5001 3028.7157,-167 3018.7156,-163.5001 3018.7157,-170.5001"/>
</g>
<!-- SharedModule -->
<g id="node28" class="node">
<title>SharedModule</title>
<polygon fill="#8dd3c7" stroke="#000000" points="1403.4231,-122 1400.4231,-126 1379.4231,-126 1376.4231,-122 1304.5769,-122 1304.5769,-86 1403.4231,-86 1403.4231,-122"/>
<text text-anchor="middle" x="1354" y="-99.8" font-family="Times,serif" font-size="14.00" fill="#000000">SharedModule</text>
</g>
<!-- SharedModule&#45;&gt;StreamsModule -->
<g id="edge27" class="edge">
<title>SharedModule&#45;&gt;StreamsModule</title>
<path fill="none" stroke="#000000" d="M1354,-122.1061C1354,-141.3391 1354,-169 1354,-169 1354,-169 3018.8438,-169 3018.8438,-169"/>
<polygon fill="#000000" stroke="#000000" points="3018.8438,-172.5001 3028.8438,-169 3018.8438,-165.5001 3018.8438,-172.5001"/>
</g>
<!-- AppsModule -->
<g id="node29" class="node">
<title>AppsModule</title>
<polygon fill="#8dd3c7" stroke="#000000" points="1286.6011,-122 1283.6011,-126 1262.6011,-126 1259.6011,-122 1197.3989,-122 1197.3989,-86 1286.6011,-86 1286.6011,-122"/>
<text text-anchor="middle" x="1242" y="-99.8" font-family="Times,serif" font-size="14.00" fill="#000000">AppsModule</text>
</g>
<!-- AppsModule&#45;&gt;StreamsModule -->
<g id="edge28" class="edge">
<title>AppsModule&#45;&gt;StreamsModule</title>
<path fill="none" stroke="#000000" d="M1242,-122.308C1242,-142.1455 1242,-171 1242,-171 1242,-171 3018.4361,-171 3018.4361,-171"/>
<polygon fill="#000000" stroke="#000000" points="3018.4362,-174.5001 3028.4361,-171 3018.4361,-167.5001 3018.4362,-174.5001"/>
</g>
<!-- AuthModule -->
<g id="node30" class="node">
<title>AuthModule</title>
<polygon fill="#8dd3c7" stroke="#000000" points="1179.5482,-122 1176.5482,-126 1155.5482,-126 1152.5482,-122 1092.4518,-122 1092.4518,-86 1179.5482,-86 1179.5482,-122"/>
<text text-anchor="middle" x="1136" y="-99.8" font-family="Times,serif" font-size="14.00" fill="#000000">AuthModule</text>
</g>
<!-- AuthModule&#45;&gt;StreamsModule -->
<g id="edge29" class="edge">
<title>AuthModule&#45;&gt;StreamsModule</title>
<path fill="none" stroke="#000000" d="M1136,-122.1289C1136,-142.5724 1136,-173 1136,-173 1136,-173 3018.7246,-173 3018.7246,-173"/>
<polygon fill="#000000" stroke="#000000" points="3018.7246,-176.5001 3028.7246,-173 3018.7246,-169.5001 3018.7246,-176.5001"/>
</g>
<!-- StreamsService -->
<g id="node32" class="node">
<title>StreamsService</title>
<ellipse fill="#fdb462" stroke="#000000" cx="997" cy="-104" rx="71.1998" ry="18"/>
<text text-anchor="middle" x="997" y="-99.8" font-family="Times,serif" font-size="14.00" fill="#000000">StreamsService</text>
</g>
<!-- StreamsService&#45;&gt;StreamsModule -->
<g id="edge31" class="edge">
<title>StreamsService&#45;&gt;StreamsModule</title>
<path fill="none" stroke="#000000" d="M997,-122.2843C997,-143.3211 997,-175 997,-175 997,-175 3018.7043,-175 3018.7043,-175"/>
<polygon fill="#000000" stroke="#000000" points="3018.7043,-178.5001 3028.7043,-175 3018.7043,-171.5001 3018.7043,-178.5001"/>
</g>
<!-- MetamodelService -->
<g id="node33" class="node">
<title>MetamodelService</title>
<ellipse fill="#fdb462" stroke="#000000" cx="824" cy="-104" rx="83.945" ry="18"/>
<text text-anchor="middle" x="824" y="-99.8" font-family="Times,serif" font-size="14.00" fill="#000000">MetamodelService</text>
</g>
<!-- MetamodelService&#45;&gt;StreamsModule -->
<g id="edge32" class="edge">
<title>MetamodelService&#45;&gt;StreamsModule</title>
<path fill="none" stroke="#000000" d="M824,-122.0449C824,-143.6623 824,-177 824,-177 824,-177 3018.8047,-177 3018.8047,-177"/>
<polygon fill="#000000" stroke="#000000" points="3018.8048,-180.5001 3028.8047,-177 3018.8047,-173.5001 3018.8048,-180.5001"/>
</g>
<!-- RenderService -->
<g id="node34" class="node">
<title>RenderService</title>
<ellipse fill="#fdb462" stroke="#000000" cx="654" cy="-104" rx="67.7548" ry="18"/>
<text text-anchor="middle" x="654" y="-99.8" font-family="Times,serif" font-size="14.00" fill="#000000">RenderService</text>
</g>
<!-- RenderService&#45;&gt;StreamsModule -->
<g id="edge33" class="edge">
<title>RenderService&#45;&gt;StreamsModule</title>
<path fill="none" stroke="#000000" d="M654,-122.1554C654,-144.3519 654,-179 654,-179 654,-179 3018.6201,-179 3018.6201,-179"/>
<polygon fill="#000000" stroke="#000000" points="3018.6202,-182.5001 3028.6201,-179 3018.6201,-175.5001 3018.6202,-182.5001"/>
</g>
<!-- EditorService -->
<g id="node35" class="node">
<title>EditorService</title>
<ellipse fill="#fdb462" stroke="#000000" cx="504" cy="-104" rx="64.261" ry="18"/>
<text text-anchor="middle" x="504" y="-99.8" font-family="Times,serif" font-size="14.00" fill="#000000">EditorService</text>
</g>
<!-- EditorService&#45;&gt;StreamsModule -->
<g id="edge34" class="edge">
<title>EditorService&#45;&gt;StreamsModule</title>
<path fill="none" stroke="#000000" d="M504,-122.2479C504,-145.0179 504,-181 504,-181 504,-181 3018.6488,-181 3018.6488,-181"/>
<polygon fill="#000000" stroke="#000000" points="3018.6488,-184.5001 3028.6488,-181 3018.6487,-177.5001 3018.6488,-184.5001"/>
</g>
<!-- ContentAssistService -->
<g id="node36" class="node">
<title>ContentAssistService</title>
<ellipse fill="#fdb462" stroke="#000000" cx="328" cy="-104" rx="94.3543" ry="18"/>
<text text-anchor="middle" x="328" y="-99.8" font-family="Times,serif" font-size="14.00" fill="#000000">ContentAssistService</text>
</g>
<!-- ContentAssistService&#45;&gt;StreamsModule -->
<g id="edge35" class="edge">
<title>ContentAssistService&#45;&gt;StreamsModule</title>
<path fill="none" stroke="#000000" d="M328,-122.3228C328,-145.6602 328,-183 328,-183 328,-183 3018.7667,-183 3018.7667,-183"/>
<polygon fill="#000000" stroke="#000000" points="3018.7667,-186.5001 3028.7667,-183 3018.7667,-179.5001 3018.7667,-186.5001"/>
</g>
<!-- StreamDeployService -->
<g id="node37" class="node">
<title>StreamDeployService</title>
<ellipse fill="#fdb462" stroke="#000000" cx="120" cy="-104" rx="95.5433" ry="18"/>
<text text-anchor="middle" x="120" y="-99.8" font-family="Times,serif" font-size="14.00" fill="#000000">StreamDeployService</text>
</g>
<!-- StreamDeployService&#45;&gt;StreamsModule -->
<g id="edge36" class="edge">
<title>StreamDeployService&#45;&gt;StreamsModule</title>
<path fill="none" stroke="#000000" d="M120,-122.3802C120,-146.2785 120,-185 120,-185 120,-185 3018.6651,-185 3018.6651,-185"/>
<polygon fill="#000000" stroke="#000000" points="3018.6652,-188.5001 3028.6651,-185 3018.6651,-181.5001 3018.6652,-188.5001"/>
</g>
</g>
</svg>
