<?xml version="1.0" encoding="utf-8"?>
<!-- Generator: Adobe Illustrator 23.1.1, SVG Export Plug-In . SVG Version: 6.00 Build 0)  -->
<svg version="1.1" id="Layer_1" xmlns="http://www.w3.org/2000/svg" xmlns:xlink="http://www.w3.org/1999/xlink" x="0px" y="0px"
	 viewBox="0 0 200 200" style="enable-background:new 0 0 200 200;" xml:space="preserve">
<style type="text/css">
	.st0{fill:#273640;}
</style>
<path class="st0" d="M146.9,39.1v121.9c0,7.8-6.3,14.1-14.1,14.1H67.2c-7.8,0-14.1-6.3-14.1-14.1V39.1c0-7.8,6.3-14.1,14.1-14.1
	h65.6C140.6,25,146.9,31.3,146.9,39.1z M175,56.1v3.5c0,1-0.8,1.8-1.8,1.8H168v1.8c0,1-0.8,1.8-1.8,1.8h-12.3V50.8h12.3
	c1,0,1.8,0.8,1.8,1.8v1.8h5.3C174.2,54.3,175,55.1,175,56.1z M175,84.2v3.5c0,1-0.8,1.8-1.8,1.8H168v1.8c0,1-0.8,1.8-1.8,1.8h-12.3
	V78.9h12.3c1,0,1.8,0.8,1.8,1.8v1.8h5.3C174.2,82.4,175,83.2,175,84.2z M175,112.3v3.5c0,1-0.8,1.8-1.8,1.8H168v1.8
	c0,1-0.8,1.8-1.8,1.8h-12.3V107h12.3c1,0,1.8,0.8,1.8,1.8v1.8h5.3C174.2,110.5,175,111.3,175,112.3z M175,140.4v3.5
	c0,1-0.8,1.8-1.8,1.8H168v1.8c0,1-0.8,1.8-1.8,1.8h-12.3v-14.1h12.3c1,0,1.8,0.8,1.8,1.8v1.8h5.3C174.2,138.7,175,139.5,175,140.4z
	 M33.8,135.2h12.3v14.1H33.8c-1,0-1.8-0.8-1.8-1.8v-1.8h-5.3c-1,0-1.8-0.8-1.8-1.8v-3.5c0-1,0.8-1.8,1.8-1.8H32v-1.8
	C32,135.9,32.8,135.2,33.8,135.2z M33.8,107h12.3v14.1H33.8c-1,0-1.8-0.8-1.8-1.8v-1.8h-5.3c-1,0-1.8-0.8-1.8-1.8v-3.5
	c0-1,0.8-1.8,1.8-1.8H32v-1.8C32,107.8,32.8,107,33.8,107z M33.8,78.9h12.3V93H33.8c-1,0-1.8-0.8-1.8-1.8v-1.8h-5.3
	c-1,0-1.8-0.8-1.8-1.8v-3.5c0-1,0.8-1.8,1.8-1.8H32v-1.8C32,79.7,32.8,78.9,33.8,78.9z M33.8,50.8h12.3v14.1H33.8
	c-1,0-1.8-0.8-1.8-1.8v-1.8h-5.3c-1,0-1.8-0.8-1.8-1.8v-3.5c0-1,0.8-1.8,1.8-1.8H32v-1.8C32,51.6,32.8,50.8,33.8,50.8z"/>
</svg>
