<?xml version="1.0" encoding="utf-8"?>
<!-- Generator: Adobe Illustrator 22.1.0, SVG Export Plug-In . SVG Version: 6.00 Build 0)  -->
<svg version="1.1" id="Layer_1" xmlns="http://www.w3.org/2000/svg" xmlns:xlink="http://www.w3.org/1999/xlink" x="0px" y="0px"
	 viewBox="0 0 200 200" style="enable-background:new 0 0 200 200;" xml:space="preserve">
<style type="text/css">
	.st0{fill:#DA0000;}
</style>
<path class="st0" d="M172,100c0,39.8-32.2,72-72,72s-72-32.2-72-72c0-39.8,32.2-72,72-72S172,60.2,172,100z M100,114.5
	c-7.4,0-13.4,6-13.4,13.4c0,7.4,6,13.4,13.4,13.4s13.4-6,13.4-13.4C113.4,120.5,107.4,114.5,100,114.5z M87.3,66.5l2.2,39.5
	c0.1,1.8,1.6,3.3,3.5,3.3H107c1.9,0,3.4-1.4,3.5-3.3l2.2-39.5c0.1-2-1.5-3.7-3.5-3.7H90.8C88.8,62.8,87.2,64.5,87.3,66.5L87.3,66.5z
	"/>
</svg>
