<?xml version="1.0" encoding="utf-8"?>
<!-- Generator: Adobe Illustrator 22.1.0, SVG Export Plug-In . SVG Version: 6.00 Build 0)  -->
<svg version="1.1" id="Layer" xmlns="http://www.w3.org/2000/svg" xmlns:xlink="http://www.w3.org/1999/xlink" x="0px" y="0px"
	 width="200px" height="200px" viewBox="0 0 200 200" style="enable-background:new 0 0 200 200;" xml:space="preserve">
<style type="text/css">
	.st0{fill-rule:evenodd;clip-rule:evenodd;fill:#243641;}
</style>
<path id="Shape" class="st0" d="M44.3,124.4H4.8c-2.6,0-4.8-2.1-4.8-4.8V80.4c0-2.6,2.1-4.8,4.8-4.8h39.5
	c10.3-32.1,40.4-55.4,76-55.4c44.1,0,79.8,35.7,79.8,79.8s-35.7,79.8-79.8,79.8C84.7,179.8,54.6,156.5,44.3,124.4z M147.6,100
	c0-15.1-12.3-27.4-27.4-27.4c-15.1,0-27.4,12.3-27.4,27.4s12.3,27.4,27.4,27.4C135.4,127.4,147.6,115.1,147.6,100z"/>
</svg>
