<?xml version="1.0" encoding="utf-8"?>
<!-- Generator: Adobe Illustrator 22.1.0, SVG Export Plug-In . SVG Version: 6.00 Build 0)  -->
<svg version="1.1" id="Layer" xmlns="http://www.w3.org/2000/svg" xmlns:xlink="http://www.w3.org/1999/xlink" x="0px" y="0px"
	 width="200px" height="200px" viewBox="0 0 200 200" style="enable-background:new 0 0 200 200;" xml:space="preserve">
<style type="text/css">
	.st0{fill-rule:evenodd;clip-rule:evenodd;fill:#243641;}
</style>
<path id="Shape" class="st0" d="M155.7,75.6h39.5c2.6,0,4.8,2.1,4.8,4.8v39.3c0,2.6-2.1,4.8-4.8,4.8h-39.5
	c-10.3,32.1-40.4,55.4-76,55.4C35.7,179.8,0,144.1,0,100s35.7-79.8,79.8-79.8C115.3,20.2,145.4,43.5,155.7,75.6z M52.4,100
	c0,15.1,12.3,27.4,27.4,27.4c15.1,0,27.4-12.3,27.4-27.4S94.9,72.6,79.8,72.6C64.6,72.6,52.4,84.9,52.4,100z"/>
</svg>
