<?xml version="1.0" encoding="UTF-8" standalone="no"?>
<!DOCTYPE svg PUBLIC "-//W3C//DTD SVG 1.1//EN"
 "http://www.w3.org/Graphics/SVG/1.1/DTD/svg11.dtd">
<!-- Generated by graphviz version 2.40.1 (20161225.0304)
 -->
<!-- Title: dependencies Pages: 1 -->
<svg width="6202pt" height="284pt"
 viewBox="0.00 0.00 6202.00 284.00" xmlns="http://www.w3.org/2000/svg" xmlns:xlink="http://www.w3.org/1999/xlink">
<g id="graph0" class="graph" transform="scale(1 1) rotate(0) translate(4 280)">
<title>dependencies</title>
<polygon fill="#ffffff" stroke="transparent" points="-4,4 -4,-280 6198,-280 6198,4 -4,4"/>
<text text-anchor="start" x="3076.0091" y="-42.4" font-family="sans-serif" font-weight="bold" font-size="14.00" fill="#000000">Legend</text>
<polygon fill="#ffffb3" stroke="transparent" points="2863,-10 2863,-30 2883,-30 2883,-10 2863,-10"/>
<text text-anchor="start" x="2886.629" y="-15.4" font-family="sans-serif" font-size="14.00" fill="#000000"> &#160;Declarations</text>
<polygon fill="#8dd3c7" stroke="transparent" points="2976,-10 2976,-30 2996,-30 2996,-10 2976,-10"/>
<text text-anchor="start" x="2999.7251" y="-15.4" font-family="sans-serif" font-size="14.00" fill="#000000"> &#160;Module</text>
<polygon fill="#80b1d3" stroke="transparent" points="3062,-10 3062,-30 3082,-30 3082,-10 3062,-10"/>
<text text-anchor="start" x="3085.7812" y="-15.4" font-family="sans-serif" font-size="14.00" fill="#000000"> &#160;Bootstrap</text>
<polygon fill="#fdb462" stroke="transparent" points="3159,-10 3159,-30 3179,-30 3179,-10 3159,-10"/>
<text text-anchor="start" x="3182.6732" y="-15.4" font-family="sans-serif" font-size="14.00" fill="#000000"> &#160;Providers</text>
<polygon fill="#fb8072" stroke="transparent" points="3255,-10 3255,-30 3275,-30 3275,-10 3255,-10"/>
<text text-anchor="start" x="3278.7258" y="-15.4" font-family="sans-serif" font-size="14.00" fill="#000000"> &#160;Exports</text>
<g id="clust1" class="cluster">
<title>cluster_TasksModule</title>
<polygon fill="none" stroke="#000000" stroke-dasharray="1,5" points="8,-70 8,-268 6186,-268 6186,-70 8,-70"/>
</g>
<g id="clust2" class="cluster">
<title>cluster_TasksModule_declarations</title>
<polygon fill="none" stroke="#000000" points="1490,-78 1490,-130 6178,-130 6178,-78 1490,-78"/>
</g>
<g id="clust27" class="cluster">
<title>cluster_TasksModule_imports</title>
<polygon fill="none" stroke="#000000" points="999,-78 999,-130 1482,-130 1482,-78 999,-78"/>
</g>
<g id="clust28" class="cluster">
<title>cluster_TasksModule_exports</title>
<polygon fill="none" stroke="#000000" points="2908,-208 2908,-260 3070,-260 3070,-208 2908,-208"/>
</g>
<g id="clust30" class="cluster">
<title>cluster_TasksModule_providers</title>
<polygon fill="none" stroke="#000000" points="16,-78 16,-130 991,-130 991,-78 16,-78"/>
</g>
<!-- TasksComponent -->
<g id="node1" class="node">
<title>TasksComponent</title>
<polygon fill="#ffffb3" stroke="#000000" points="6169.9888,-122 6056.0112,-122 6056.0112,-86 6169.9888,-86 6169.9888,-122"/>
<text text-anchor="middle" x="6113" y="-99.8" font-family="Times,serif" font-size="14.00" fill="#000000">TasksComponent</text>
</g>
<!-- TasksModule -->
<g id="node25" class="node">
<title>TasksModule</title>
<polygon fill="#8dd3c7" stroke="#000000" points="3035.2064,-187 3032.2064,-191 3011.2064,-191 3008.2064,-187 2942.7936,-187 2942.7936,-151 3035.2064,-151 3035.2064,-187"/>
<text text-anchor="middle" x="2989" y="-164.8" font-family="Times,serif" font-size="14.00" fill="#000000">TasksModule</text>
</g>
<!-- TasksComponent&#45;&gt;TasksModule -->
<g id="edge1" class="edge">
<title>TasksComponent&#45;&gt;TasksModule</title>
<path fill="none" stroke="#000000" d="M6113,-122.3802C6113,-146.2785 6113,-185 6113,-185 6113,-185 3045.2793,-185 3045.2793,-185"/>
<polygon fill="#000000" stroke="#000000" points="3045.2793,-181.5001 3035.2793,-185 3045.2793,-188.5001 3045.2793,-181.5001"/>
</g>
<!-- TaskDefinitionCreateComponent -->
<g id="node2" class="node">
<title>TaskDefinitionCreateComponent</title>
<polygon fill="#ffffb3" stroke="#000000" points="6038.1204,-122 5835.8796,-122 5835.8796,-86 6038.1204,-86 6038.1204,-122"/>
<text text-anchor="middle" x="5937" y="-99.8" font-family="Times,serif" font-size="14.00" fill="#000000">TaskDefinitionCreateComponent</text>
</g>
<!-- TaskDefinitionCreateComponent&#45;&gt;TasksModule -->
<g id="edge2" class="edge">
<title>TaskDefinitionCreateComponent&#45;&gt;TasksModule</title>
<path fill="none" stroke="#000000" d="M5937,-122.3228C5937,-145.6602 5937,-183 5937,-183 5937,-183 3045.306,-183 3045.306,-183"/>
<polygon fill="#000000" stroke="#000000" points="3045.3061,-179.5001 3035.306,-183 3045.306,-186.5001 3045.3061,-179.5001"/>
</g>
<!-- TaskDefinitionCreateDialogComponent -->
<g id="node3" class="node">
<title>TaskDefinitionCreateDialogComponent</title>
<polygon fill="#ffffb3" stroke="#000000" points="5817.2226,-122 5576.7774,-122 5576.7774,-86 5817.2226,-86 5817.2226,-122"/>
<text text-anchor="middle" x="5697" y="-99.8" font-family="Times,serif" font-size="14.00" fill="#000000">TaskDefinitionCreateDialogComponent</text>
</g>
<!-- TaskDefinitionCreateDialogComponent&#45;&gt;TasksModule -->
<g id="edge3" class="edge">
<title>TaskDefinitionCreateDialogComponent&#45;&gt;TasksModule</title>
<path fill="none" stroke="#000000" d="M5697,-122.2479C5697,-145.0179 5697,-181 5697,-181 5697,-181 3045.149,-181 3045.149,-181"/>
<polygon fill="#000000" stroke="#000000" points="3045.149,-177.5001 3035.149,-181 3045.149,-184.5001 3045.149,-177.5001"/>
</g>
<!-- TaskExecutionsComponent -->
<g id="node4" class="node">
<title>TaskExecutionsComponent</title>
<polygon fill="#ffffb3" stroke="#000000" points="5558.252,-122 5387.748,-122 5387.748,-86 5558.252,-86 5558.252,-122"/>
<text text-anchor="middle" x="5473" y="-99.8" font-family="Times,serif" font-size="14.00" fill="#000000">TaskExecutionsComponent</text>
</g>
<!-- TaskExecutionsComponent&#45;&gt;TasksModule -->
<g id="edge4" class="edge">
<title>TaskExecutionsComponent&#45;&gt;TasksModule</title>
<path fill="none" stroke="#000000" d="M5473,-122.1554C5473,-144.3519 5473,-179 5473,-179 5473,-179 3045.3131,-179 3045.3131,-179"/>
<polygon fill="#000000" stroke="#000000" points="3045.3131,-175.5001 3035.3131,-179 3045.313,-182.5001 3045.3131,-175.5001"/>
</g>
<!-- TaskExecutionComponent -->
<g id="node5" class="node">
<title>TaskExecutionComponent</title>
<polygon fill="#ffffb3" stroke="#000000" points="5369.8075,-122 5204.1925,-122 5204.1925,-86 5369.8075,-86 5369.8075,-122"/>
<text text-anchor="middle" x="5287" y="-99.8" font-family="Times,serif" font-size="14.00" fill="#000000">TaskExecutionComponent</text>
</g>
<!-- TaskExecutionComponent&#45;&gt;TasksModule -->
<g id="edge5" class="edge">
<title>TaskExecutionComponent&#45;&gt;TasksModule</title>
<path fill="none" stroke="#000000" d="M5287,-122.0449C5287,-143.6623 5287,-177 5287,-177 5287,-177 3045.1627,-177 3045.1627,-177"/>
<polygon fill="#000000" stroke="#000000" points="3045.1628,-173.5001 3035.1627,-177 3045.1627,-180.5001 3045.1628,-173.5001"/>
</g>
<!-- TaskLaunchComponent -->
<g id="node6" class="node">
<title>TaskLaunchComponent</title>
<polygon fill="#ffffb3" stroke="#000000" points="5186.0267,-122 5035.9733,-122 5035.9733,-86 5186.0267,-86 5186.0267,-122"/>
<text text-anchor="middle" x="5111" y="-99.8" font-family="Times,serif" font-size="14.00" fill="#000000">TaskLaunchComponent</text>
</g>
<!-- TaskLaunchComponent&#45;&gt;TasksModule -->
<g id="edge6" class="edge">
<title>TaskLaunchComponent&#45;&gt;TasksModule</title>
<path fill="none" stroke="#000000" d="M5111,-122.2843C5111,-143.3211 5111,-175 5111,-175 5111,-175 3045.2944,-175 3045.2944,-175"/>
<polygon fill="#000000" stroke="#000000" points="3045.2945,-171.5001 3035.2944,-175 3045.2944,-178.5001 3045.2945,-171.5001"/>
</g>
<!-- TaskGraphViewComponent -->
<g id="node7" class="node">
<title>TaskGraphViewComponent</title>
<polygon fill="#ffffb3" stroke="#000000" points="5017.8445,-122 4844.1555,-122 4844.1555,-86 5017.8445,-86 5017.8445,-122"/>
<text text-anchor="middle" x="4931" y="-99.8" font-family="Times,serif" font-size="14.00" fill="#000000">TaskGraphViewComponent</text>
</g>
<!-- TaskGraphViewComponent&#45;&gt;TasksModule -->
<g id="edge7" class="edge">
<title>TaskGraphViewComponent&#45;&gt;TasksModule</title>
<path fill="none" stroke="#000000" d="M4931,-122.1289C4931,-142.5724 4931,-173 4931,-173 4931,-173 3045.5648,-173 3045.5648,-173"/>
<polygon fill="#000000" stroke="#000000" points="3045.5648,-169.5001 3035.5648,-173 3045.5648,-176.5001 3045.5648,-169.5001"/>
</g>
<!-- NodeComponent -->
<g id="node8" class="node">
<title>NodeComponent</title>
<polygon fill="#ffffb3" stroke="#000000" points="4825.6541,-122 4714.3459,-122 4714.3459,-86 4825.6541,-86 4825.6541,-122"/>
<text text-anchor="middle" x="4770" y="-99.8" font-family="Times,serif" font-size="14.00" fill="#000000">NodeComponent</text>
</g>
<!-- NodeComponent&#45;&gt;TasksModule -->
<g id="edge8" class="edge">
<title>NodeComponent&#45;&gt;TasksModule</title>
<path fill="none" stroke="#000000" d="M4770,-122.308C4770,-142.1455 4770,-171 4770,-171 4770,-171 3045.2673,-171 3045.2673,-171"/>
<polygon fill="#000000" stroke="#000000" points="3045.2674,-167.5001 3035.2673,-171 3045.2673,-174.5001 3045.2674,-167.5001"/>
</g>
<!-- TaskPropertiesDialogComponent -->
<g id="node9" class="node">
<title>TaskPropertiesDialogComponent</title>
<polygon fill="#ffffb3" stroke="#000000" points="4695.9058,-122 4492.0942,-122 4492.0942,-86 4695.9058,-86 4695.9058,-122"/>
<text text-anchor="middle" x="4594" y="-99.8" font-family="Times,serif" font-size="14.00" fill="#000000">TaskPropertiesDialogComponent</text>
</g>
<!-- TaskPropertiesDialogComponent&#45;&gt;TasksModule -->
<g id="edge9" class="edge">
<title>TaskPropertiesDialogComponent&#45;&gt;TasksModule</title>
<path fill="none" stroke="#000000" d="M4594,-122.1686C4594,-141.0898 4594,-168 4594,-168 4594,-168 3045.3036,-168 3045.3036,-168"/>
<polygon fill="#000000" stroke="#000000" points="3045.3036,-164.5001 3035.3036,-168 3045.3036,-171.5001 3045.3036,-164.5001"/>
</g>
<!-- TaskDefinitionComponent -->
<g id="node10" class="node">
<title>TaskDefinitionComponent</title>
<polygon fill="#ffffb3" stroke="#000000" points="4474.0884,-122 4307.9116,-122 4307.9116,-86 4474.0884,-86 4474.0884,-122"/>
<text text-anchor="middle" x="4391" y="-99.8" font-family="Times,serif" font-size="14.00" fill="#000000">TaskDefinitionComponent</text>
</g>
<!-- TaskDefinitionComponent&#45;&gt;TasksModule -->
<g id="edge10" class="edge">
<title>TaskDefinitionComponent&#45;&gt;TasksModule</title>
<path fill="none" stroke="#000000" d="M4391,-122.2667C4391,-140.5552 4391,-166 4391,-166 4391,-166 3045.2477,-166 3045.2477,-166"/>
<polygon fill="#000000" stroke="#000000" points="3045.2478,-162.5001 3035.2477,-166 3045.2477,-169.5001 3045.2478,-162.5001"/>
</g>
<!-- TaskStatusComponent -->
<g id="node11" class="node">
<title>TaskStatusComponent</title>
<polygon fill="#ffffb3" stroke="#000000" points="4290.2674,-122 4147.7326,-122 4147.7326,-86 4290.2674,-86 4290.2674,-122"/>
<text text-anchor="middle" x="4219" y="-99.8" font-family="Times,serif" font-size="14.00" fill="#000000">TaskStatusComponent</text>
</g>
<!-- TaskStatusComponent&#45;&gt;TasksModule -->
<g id="edge11" class="edge">
<title>TaskStatusComponent&#45;&gt;TasksModule</title>
<path fill="none" stroke="#000000" d="M4219,-122.002C4219,-139.6754 4219,-164 4219,-164 4219,-164 3045.3434,-164 3045.3434,-164"/>
<polygon fill="#000000" stroke="#000000" points="3045.3434,-160.5001 3035.3434,-164 3045.3433,-167.5001 3045.3434,-160.5001"/>
</g>
<!-- TaskDefinitionsDestroyComponent -->
<g id="node12" class="node">
<title>TaskDefinitionsDestroyComponent</title>
<polygon fill="#ffffb3" stroke="#000000" points="4129.8501,-122 3914.1499,-122 3914.1499,-86 4129.8501,-86 4129.8501,-122"/>
<text text-anchor="middle" x="4022" y="-99.8" font-family="Times,serif" font-size="14.00" fill="#000000">TaskDefinitionsDestroyComponent</text>
</g>
<!-- TaskDefinitionsDestroyComponent&#45;&gt;TasksModule -->
<g id="edge12" class="edge">
<title>TaskDefinitionsDestroyComponent&#45;&gt;TasksModule</title>
<path fill="none" stroke="#000000" d="M4022,-122.0336C4022,-139.0597 4022,-162 4022,-162 4022,-162 3045.3927,-162 3045.3927,-162"/>
<polygon fill="#000000" stroke="#000000" points="3045.3927,-158.5001 3035.3927,-162 3045.3926,-165.5001 3045.3927,-158.5001"/>
</g>
<!-- TaskDefinitionsComponent -->
<g id="node13" class="node">
<title>TaskDefinitionsComponent</title>
<polygon fill="#ffffb3" stroke="#000000" points="3895.5336,-122 3724.4664,-122 3724.4664,-86 3895.5336,-86 3895.5336,-122"/>
<text text-anchor="middle" x="3810" y="-99.8" font-family="Times,serif" font-size="14.00" fill="#000000">TaskDefinitionsComponent</text>
</g>
<!-- TaskDefinitionsComponent&#45;&gt;TasksModule -->
<g id="edge13" class="edge">
<title>TaskDefinitionsComponent&#45;&gt;TasksModule</title>
<path fill="none" stroke="#000000" d="M3810,-122.027C3810,-138.3976 3810,-160 3810,-160 3810,-160 3045.1959,-160 3045.1959,-160"/>
<polygon fill="#000000" stroke="#000000" points="3045.1959,-156.5001 3035.1959,-160 3045.1958,-163.5001 3045.1959,-156.5001"/>
</g>
<!-- TaskSummaryComponent -->
<g id="node14" class="node">
<title>TaskSummaryComponent</title>
<polygon fill="#ffffb3" stroke="#000000" points="3706.4832,-122 3543.5168,-122 3543.5168,-86 3706.4832,-86 3706.4832,-122"/>
<text text-anchor="middle" x="3625" y="-99.8" font-family="Times,serif" font-size="14.00" fill="#000000">TaskSummaryComponent</text>
</g>
<!-- TaskSummaryComponent&#45;&gt;TasksModule -->
<g id="edge14" class="edge">
<title>TaskSummaryComponent&#45;&gt;TasksModule</title>
<path fill="none" stroke="#000000" d="M3625,-122.2819C3625,-137.9478 3625,-158 3625,-158 3625,-158 3045.2519,-158 3045.2519,-158"/>
<polygon fill="#000000" stroke="#000000" points="3045.2519,-154.5001 3035.2519,-158 3045.2518,-161.5001 3045.2519,-154.5001"/>
</g>
<!-- TaskGraphComponent -->
<g id="node15" class="node">
<title>TaskGraphComponent</title>
<polygon fill="#ffffb3" stroke="#000000" points="3525.5268,-122 3382.4732,-122 3382.4732,-86 3525.5268,-86 3525.5268,-122"/>
<text text-anchor="middle" x="3454" y="-99.8" font-family="Times,serif" font-size="14.00" fill="#000000">TaskGraphComponent</text>
</g>
<!-- TaskGraphComponent&#45;&gt;TasksModule -->
<g id="edge15" class="edge">
<title>TaskGraphComponent&#45;&gt;TasksModule</title>
<path fill="none" stroke="#000000" d="M3454,-122.1871C3454,-137.1824 3454,-156 3454,-156 3454,-156 3045.286,-156 3045.286,-156"/>
<polygon fill="#000000" stroke="#000000" points="3045.286,-152.5001 3035.286,-156 3045.286,-159.5001 3045.286,-152.5001"/>
</g>
<!-- TasksTabulationComponent -->
<g id="node16" class="node">
<title>TasksTabulationComponent</title>
<polygon fill="#ffffb3" stroke="#000000" points="3364.1428,-122 3189.8572,-122 3189.8572,-86 3364.1428,-86 3364.1428,-122"/>
<text text-anchor="middle" x="3277" y="-99.8" font-family="Times,serif" font-size="14.00" fill="#000000">TasksTabulationComponent</text>
</g>
<!-- TasksTabulationComponent&#45;&gt;TasksModule -->
<g id="edge16" class="edge">
<title>TasksTabulationComponent&#45;&gt;TasksModule</title>
<path fill="none" stroke="#000000" d="M3277,-122.0511C3277,-136.373 3277,-154 3277,-154 3277,-154 3045.2722,-154 3045.2722,-154"/>
<polygon fill="#000000" stroke="#000000" points="3045.2722,-150.5001 3035.2722,-154 3045.2721,-157.5001 3045.2722,-150.5001"/>
</g>
<!-- TaskSchedulesComponent -->
<g id="node17" class="node">
<title>TaskSchedulesComponent</title>
<polygon fill="#ffffb3" stroke="#000000" points="3171.8061,-122 3006.1939,-122 3006.1939,-86 3171.8061,-86 3171.8061,-122"/>
<text text-anchor="middle" x="3089" y="-99.8" font-family="Times,serif" font-size="14.00" fill="#000000">TaskSchedulesComponent</text>
</g>
<!-- TaskSchedulesComponent&#45;&gt;TasksModule -->
<g id="edge17" class="edge">
<title>TaskSchedulesComponent&#45;&gt;TasksModule</title>
<path fill="none" stroke="#000000" d="M3020.7251,-122.1061C3020.7251,-122.1061 3020.7251,-140.991 3020.7251,-140.991"/>
<polygon fill="#000000" stroke="#000000" points="3017.2252,-140.9909 3020.7251,-150.991 3024.2252,-140.991 3017.2252,-140.9909"/>
</g>
<!-- TaskScheduleCreateComponent -->
<g id="node18" class="node">
<title>TaskScheduleCreateComponent</title>
<polygon fill="#ffffb3" stroke="#000000" points="2988.3932,-122 2791.6068,-122 2791.6068,-86 2988.3932,-86 2988.3932,-122"/>
<text text-anchor="middle" x="2890" y="-99.8" font-family="Times,serif" font-size="14.00" fill="#000000">TaskScheduleCreateComponent</text>
</g>
<!-- TaskScheduleCreateComponent&#45;&gt;TasksModule -->
<g id="edge18" class="edge">
<title>TaskScheduleCreateComponent&#45;&gt;TasksModule</title>
<path fill="none" stroke="#000000" d="M2965.5467,-122.1061C2965.5467,-122.1061 2965.5467,-140.991 2965.5467,-140.991"/>
<polygon fill="#000000" stroke="#000000" points="2962.0467,-140.9909 2965.5467,-150.991 2969.0467,-140.991 2962.0467,-140.9909"/>
</g>
<!-- TaskScheduleComponent -->
<g id="node19" class="node">
<title>TaskScheduleComponent</title>
<polygon fill="#ffffb3" stroke="#000000" points="2773.8613,-122 2614.1387,-122 2614.1387,-86 2773.8613,-86 2773.8613,-122"/>
<text text-anchor="middle" x="2694" y="-99.8" font-family="Times,serif" font-size="14.00" fill="#000000">TaskScheduleComponent</text>
</g>
<!-- TaskScheduleComponent&#45;&gt;TasksModule -->
<g id="edge19" class="edge">
<title>TaskScheduleComponent&#45;&gt;TasksModule</title>
<path fill="none" stroke="#000000" d="M2694,-122.0511C2694,-136.373 2694,-154 2694,-154 2694,-154 2932.5817,-154 2932.5817,-154"/>
<polygon fill="#000000" stroke="#000000" points="2932.5818,-157.5001 2942.5817,-154 2932.5817,-150.5001 2932.5818,-157.5001"/>
</g>
<!-- TaskScheduleSummaryComponent -->
<g id="node20" class="node">
<title>TaskScheduleSummaryComponent</title>
<polygon fill="#ffffb3" stroke="#000000" points="2596.3004,-122 2381.6996,-122 2381.6996,-86 2596.3004,-86 2596.3004,-122"/>
<text text-anchor="middle" x="2489" y="-99.8" font-family="Times,serif" font-size="14.00" fill="#000000">TaskScheduleSummaryComponent</text>
</g>
<!-- TaskScheduleSummaryComponent&#45;&gt;TasksModule -->
<g id="edge20" class="edge">
<title>TaskScheduleSummaryComponent&#45;&gt;TasksModule</title>
<path fill="none" stroke="#000000" d="M2489,-122.1871C2489,-137.1824 2489,-156 2489,-156 2489,-156 2932.8574,-156 2932.8574,-156"/>
<polygon fill="#000000" stroke="#000000" points="2932.8575,-159.5001 2942.8574,-156 2932.8574,-152.5001 2932.8575,-159.5001"/>
</g>
<!-- TaskSchedulesDestroyComponent -->
<g id="node21" class="node">
<title>TaskSchedulesDestroyComponent</title>
<polygon fill="#ffffb3" stroke="#000000" points="2363.6231,-122 2154.3769,-122 2154.3769,-86 2363.6231,-86 2363.6231,-122"/>
<text text-anchor="middle" x="2259" y="-99.8" font-family="Times,serif" font-size="14.00" fill="#000000">TaskSchedulesDestroyComponent</text>
</g>
<!-- TaskSchedulesDestroyComponent&#45;&gt;TasksModule -->
<g id="edge21" class="edge">
<title>TaskSchedulesDestroyComponent&#45;&gt;TasksModule</title>
<path fill="none" stroke="#000000" d="M2259,-122.2819C2259,-137.9478 2259,-158 2259,-158 2259,-158 2932.7814,-158 2932.7814,-158"/>
<polygon fill="#000000" stroke="#000000" points="2932.7815,-161.5001 2942.7814,-158 2932.7814,-154.5001 2932.7815,-161.5001"/>
</g>
<!-- TaskDefinitionScheduleComponent -->
<g id="node22" class="node">
<title>TaskDefinitionScheduleComponent</title>
<polygon fill="#ffffb3" stroke="#000000" points="2135.9058,-122 1918.0942,-122 1918.0942,-86 2135.9058,-86 2135.9058,-122"/>
<text text-anchor="middle" x="2027" y="-99.8" font-family="Times,serif" font-size="14.00" fill="#000000">TaskDefinitionScheduleComponent</text>
</g>
<!-- TaskDefinitionScheduleComponent&#45;&gt;TasksModule -->
<g id="edge22" class="edge">
<title>TaskDefinitionScheduleComponent&#45;&gt;TasksModule</title>
<path fill="none" stroke="#000000" d="M2027,-122.027C2027,-138.3976 2027,-160 2027,-160 2027,-160 2932.6007,-160 2932.6007,-160"/>
<polygon fill="#000000" stroke="#000000" points="2932.6008,-163.5001 2942.6007,-160 2932.6007,-156.5001 2932.6008,-163.5001"/>
</g>
<!-- TaskDefinitionExecutionsComponent -->
<g id="node23" class="node">
<title>TaskDefinitionExecutionsComponent</title>
<polygon fill="#ffffb3" stroke="#000000" points="1900.2962,-122 1671.7038,-122 1671.7038,-86 1900.2962,-86 1900.2962,-122"/>
<text text-anchor="middle" x="1786" y="-99.8" font-family="Times,serif" font-size="14.00" fill="#000000">TaskDefinitionExecutionsComponent</text>
</g>
<!-- TaskDefinitionExecutionsComponent&#45;&gt;TasksModule -->
<g id="edge23" class="edge">
<title>TaskDefinitionExecutionsComponent&#45;&gt;TasksModule</title>
<path fill="none" stroke="#000000" d="M1786,-122.0336C1786,-139.0597 1786,-162 1786,-162 1786,-162 2932.5781,-162 2932.5781,-162"/>
<polygon fill="#000000" stroke="#000000" points="2932.5781,-165.5001 2942.5781,-162 2932.5781,-158.5001 2932.5781,-165.5001"/>
</g>
<!-- TaskSchedulesFilterPipe -->
<g id="node24" class="node">
<title>TaskSchedulesFilterPipe</title>
<polygon fill="#ffffb3" stroke="#000000" points="1653.6909,-122 1498.3091,-122 1498.3091,-86 1653.6909,-86 1653.6909,-122"/>
<text text-anchor="middle" x="1576" y="-99.8" font-family="Times,serif" font-size="14.00" fill="#000000">TaskSchedulesFilterPipe</text>
</g>
<!-- TaskSchedulesFilterPipe&#45;&gt;TasksModule -->
<g id="edge24" class="edge">
<title>TaskSchedulesFilterPipe&#45;&gt;TasksModule</title>
<path fill="none" stroke="#000000" d="M1576,-122.002C1576,-139.6754 1576,-164 1576,-164 1576,-164 2932.7903,-164 2932.7903,-164"/>
<polygon fill="#000000" stroke="#000000" points="2932.7903,-167.5001 2942.7903,-164 2932.7903,-160.5001 2932.7903,-167.5001"/>
</g>
<!-- TaskStatusComponent  -->
<g id="node30" class="node">
<title>TaskStatusComponent </title>
<polygon fill="#fb8072" stroke="#000000" points="3062.2674,-252 2915.7326,-252 2915.7326,-216 3062.2674,-216 3062.2674,-252"/>
<text text-anchor="middle" x="2989" y="-229.8" font-family="Times,serif" font-size="14.00" fill="#000000">TaskStatusComponent </text>
</g>
<!-- TasksModule&#45;&gt;TaskStatusComponent  -->
<g id="edge29" class="edge">
<title>TasksModule&#45;&gt;TaskStatusComponent </title>
<path fill="none" stroke="#000000" stroke-dasharray="5,2" d="M2989,-187.1061C2989,-187.1061 2989,-205.991 2989,-205.991"/>
<polygon fill="#000000" stroke="#000000" points="2985.5001,-205.9909 2989,-215.991 2992.5001,-205.991 2985.5001,-205.9909"/>
</g>
<!-- TasksRoutingModule -->
<g id="node26" class="node">
<title>TasksRoutingModule</title>
<polygon fill="#8dd3c7" stroke="#000000" points="1473.8244,-122 1470.8244,-126 1449.8244,-126 1446.8244,-122 1336.1756,-122 1336.1756,-86 1473.8244,-86 1473.8244,-122"/>
<text text-anchor="middle" x="1405" y="-99.8" font-family="Times,serif" font-size="14.00" fill="#000000">TasksRoutingModule</text>
</g>
<!-- TasksRoutingModule&#45;&gt;TasksModule -->
<g id="edge25" class="edge">
<title>TasksRoutingModule&#45;&gt;TasksModule</title>
<path fill="none" stroke="#000000" d="M1405,-122.2667C1405,-140.5552 1405,-166 1405,-166 1405,-166 2932.8779,-166 2932.8779,-166"/>
<polygon fill="#000000" stroke="#000000" points="2932.8779,-169.5001 2942.8779,-166 2932.8778,-162.5001 2932.8779,-169.5001"/>
</g>
<!-- SharedModule -->
<g id="node27" class="node">
<title>SharedModule</title>
<polygon fill="#8dd3c7" stroke="#000000" points="1318.4231,-122 1315.4231,-126 1294.4231,-126 1291.4231,-122 1219.5769,-122 1219.5769,-86 1318.4231,-86 1318.4231,-122"/>
<text text-anchor="middle" x="1269" y="-99.8" font-family="Times,serif" font-size="14.00" fill="#000000">SharedModule</text>
</g>
<!-- SharedModule&#45;&gt;TasksModule -->
<g id="edge26" class="edge">
<title>SharedModule&#45;&gt;TasksModule</title>
<path fill="none" stroke="#000000" d="M1269,-122.1686C1269,-141.0898 1269,-168 1269,-168 1269,-168 2932.5491,-168 2932.5491,-168"/>
<polygon fill="#000000" stroke="#000000" points="2932.5492,-171.5001 2942.5491,-168 2932.5491,-164.5001 2932.5492,-171.5001"/>
</g>
<!-- AppsModule -->
<g id="node28" class="node">
<title>AppsModule</title>
<polygon fill="#8dd3c7" stroke="#000000" points="1201.6011,-122 1198.6011,-126 1177.6011,-126 1174.6011,-122 1112.3989,-122 1112.3989,-86 1201.6011,-86 1201.6011,-122"/>
<text text-anchor="middle" x="1157" y="-99.8" font-family="Times,serif" font-size="14.00" fill="#000000">AppsModule</text>
</g>
<!-- AppsModule&#45;&gt;TasksModule -->
<g id="edge27" class="edge">
<title>AppsModule&#45;&gt;TasksModule</title>
<path fill="none" stroke="#000000" d="M1157,-122.308C1157,-142.1455 1157,-171 1157,-171 1157,-171 2932.7981,-171 2932.7981,-171"/>
<polygon fill="#000000" stroke="#000000" points="2932.7981,-174.5001 2942.7981,-171 2932.7981,-167.5001 2932.7981,-174.5001"/>
</g>
<!-- AuthModule -->
<g id="node29" class="node">
<title>AuthModule</title>
<polygon fill="#8dd3c7" stroke="#000000" points="1094.5482,-122 1091.5482,-126 1070.5482,-126 1067.5482,-122 1007.4518,-122 1007.4518,-86 1094.5482,-86 1094.5482,-122"/>
<text text-anchor="middle" x="1051" y="-99.8" font-family="Times,serif" font-size="14.00" fill="#000000">AuthModule</text>
</g>
<!-- AuthModule&#45;&gt;TasksModule -->
<g id="edge28" class="edge">
<title>AuthModule&#45;&gt;TasksModule</title>
<path fill="none" stroke="#000000" d="M1051,-122.1289C1051,-142.5724 1051,-173 1051,-173 1051,-173 2932.5311,-173 2932.5311,-173"/>
<polygon fill="#000000" stroke="#000000" points="2932.5312,-176.5001 2942.5311,-173 2932.5311,-169.5001 2932.5312,-176.5001"/>
</g>
<!-- TasksService -->
<g id="node31" class="node">
<title>TasksService</title>
<ellipse fill="#fdb462" stroke="#000000" cx="920" cy="-104" rx="62.5354" ry="18"/>
<text text-anchor="middle" x="920" y="-99.8" font-family="Times,serif" font-size="14.00" fill="#000000">TasksService</text>
</g>
<!-- TasksService&#45;&gt;TasksModule -->
<g id="edge30" class="edge">
<title>TasksService&#45;&gt;TasksModule</title>
<path fill="none" stroke="#000000" d="M920,-122.2843C920,-143.3211 920,-175 920,-175 920,-175 2932.8851,-175 2932.8851,-175"/>
<polygon fill="#000000" stroke="#000000" points="2932.8851,-178.5001 2942.8851,-175 2932.8851,-171.5001 2932.8851,-178.5001"/>
</g>
<!-- MetamodelService -->
<g id="node32" class="node">
<title>MetamodelService</title>
<ellipse fill="#fdb462" stroke="#000000" cx="756" cy="-104" rx="83.945" ry="18"/>
<text text-anchor="middle" x="756" y="-99.8" font-family="Times,serif" font-size="14.00" fill="#000000">MetamodelService</text>
</g>
<!-- MetamodelService&#45;&gt;TasksModule -->
<g id="edge31" class="edge">
<title>MetamodelService&#45;&gt;TasksModule</title>
<path fill="none" stroke="#000000" d="M756,-122.0449C756,-143.6623 756,-177 756,-177 756,-177 2932.8732,-177 2932.8732,-177"/>
<polygon fill="#000000" stroke="#000000" points="2932.8732,-180.5001 2942.8732,-177 2932.8732,-173.5001 2932.8732,-180.5001"/>
</g>
<!-- RenderService -->
<g id="node33" class="node">
<title>RenderService</title>
<ellipse fill="#fdb462" stroke="#000000" cx="586" cy="-104" rx="67.7548" ry="18"/>
<text text-anchor="middle" x="586" y="-99.8" font-family="Times,serif" font-size="14.00" fill="#000000">RenderService</text>
</g>
<!-- RenderService&#45;&gt;TasksModule -->
<g id="edge32" class="edge">
<title>RenderService&#45;&gt;TasksModule</title>
<path fill="none" stroke="#000000" d="M586,-122.1554C586,-144.3519 586,-179 586,-179 586,-179 2932.8772,-179 2932.8772,-179"/>
<polygon fill="#000000" stroke="#000000" points="2932.8772,-182.5001 2942.8772,-179 2932.8772,-175.5001 2932.8772,-182.5001"/>
</g>
<!-- EditorService -->
<g id="node34" class="node">
<title>EditorService</title>
<ellipse fill="#fdb462" stroke="#000000" cx="436" cy="-104" rx="64.261" ry="18"/>
<text text-anchor="middle" x="436" y="-99.8" font-family="Times,serif" font-size="14.00" fill="#000000">EditorService</text>
</g>
<!-- EditorService&#45;&gt;TasksModule -->
<g id="edge33" class="edge">
<title>EditorService&#45;&gt;TasksModule</title>
<path fill="none" stroke="#000000" d="M436,-122.2479C436,-145.0179 436,-181 436,-181 436,-181 2932.7837,-181 2932.7837,-181"/>
<polygon fill="#000000" stroke="#000000" points="2932.7837,-184.5001 2942.7837,-181 2932.7836,-177.5001 2932.7837,-184.5001"/>
</g>
<!-- ToolsService -->
<g id="node35" class="node">
<title>ToolsService</title>
<ellipse fill="#fdb462" stroke="#000000" cx="292" cy="-104" rx="61.975" ry="18"/>
<text text-anchor="middle" x="292" y="-99.8" font-family="Times,serif" font-size="14.00" fill="#000000">ToolsService</text>
</g>
<!-- ToolsService&#45;&gt;TasksModule -->
<g id="edge34" class="edge">
<title>ToolsService&#45;&gt;TasksModule</title>
<path fill="none" stroke="#000000" d="M292,-122.3228C292,-145.6602 292,-183 292,-183 292,-183 2932.756,-183 2932.756,-183"/>
<polygon fill="#000000" stroke="#000000" points="2932.756,-186.5001 2942.756,-183 2932.7559,-179.5001 2932.756,-186.5001"/>
</g>
<!-- ContentAssistService -->
<g id="node36" class="node">
<title>ContentAssistService</title>
<ellipse fill="#fdb462" stroke="#000000" cx="118" cy="-104" rx="94.3543" ry="18"/>
<text text-anchor="middle" x="118" y="-99.8" font-family="Times,serif" font-size="14.00" fill="#000000">ContentAssistService</text>
</g>
<!-- ContentAssistService&#45;&gt;TasksModule -->
<g id="edge35" class="edge">
<title>ContentAssistService&#45;&gt;TasksModule</title>
<path fill="none" stroke="#000000" d="M118,-122.3802C118,-146.2785 118,-185 118,-185 118,-185 2932.7406,-185 2932.7406,-185"/>
<polygon fill="#000000" stroke="#000000" points="2932.7406,-188.5001 2942.7406,-185 2932.7406,-181.5001 2932.7406,-188.5001"/>
</g>
</g>
</svg>
