<?xml version="1.0" encoding="UTF-8" standalone="no"?>
<!DOCTYPE svg PUBLIC "-//W3C//DTD SVG 1.1//EN"
 "http://www.w3.org/Graphics/SVG/1.1/DTD/svg11.dtd">
<!-- Generated by graphviz version 2.40.1 (20161225.0304)
 -->
<!-- Title: dependencies Pages: 1 -->
<svg width="1700pt" height="211pt"
 viewBox="0.00 0.00 1700.00 211.00" xmlns="http://www.w3.org/2000/svg" xmlns:xlink="http://www.w3.org/1999/xlink">
<g id="graph0" class="graph" transform="scale(1 1) rotate(0) translate(4 207)">
<title>dependencies</title>
<polygon fill="#ffffff" stroke="transparent" points="-4,4 -4,-207 1696,-207 1696,4 -4,4"/>
<text text-anchor="start" x="825.0091" y="-42.4" font-family="sans-serif" font-weight="bold" font-size="14.00" fill="#000000">Legend</text>
<polygon fill="#ffffb3" stroke="transparent" points="612,-10 612,-30 632,-30 632,-10 612,-10"/>
<text text-anchor="start" x="635.629" y="-15.4" font-family="sans-serif" font-size="14.00" fill="#000000"> &#160;Declarations</text>
<polygon fill="#8dd3c7" stroke="transparent" points="725,-10 725,-30 745,-30 745,-10 725,-10"/>
<text text-anchor="start" x="748.7251" y="-15.4" font-family="sans-serif" font-size="14.00" fill="#000000"> &#160;Module</text>
<polygon fill="#80b1d3" stroke="transparent" points="811,-10 811,-30 831,-30 831,-10 811,-10"/>
<text text-anchor="start" x="834.7812" y="-15.4" font-family="sans-serif" font-size="14.00" fill="#000000"> &#160;Bootstrap</text>
<polygon fill="#fdb462" stroke="transparent" points="908,-10 908,-30 928,-30 928,-10 908,-10"/>
<text text-anchor="start" x="931.6732" y="-15.4" font-family="sans-serif" font-size="14.00" fill="#000000"> &#160;Providers</text>
<polygon fill="#fb8072" stroke="transparent" points="1004,-10 1004,-30 1024,-30 1024,-10 1004,-10"/>
<text text-anchor="start" x="1027.7258" y="-15.4" font-family="sans-serif" font-size="14.00" fill="#000000"> &#160;Exports</text>
<g id="clust1" class="cluster">
<title>cluster_AuditRecordModule</title>
<polygon fill="none" stroke="#000000" stroke-dasharray="1,5" points="8,-70 8,-195 1684,-195 1684,-70 8,-70"/>
</g>
<g id="clust2" class="cluster">
<title>cluster_AuditRecordModule_declarations</title>
<polygon fill="none" stroke="#000000" points="643,-78 643,-130 1676,-130 1676,-78 643,-78"/>
</g>
<g id="clust8" class="cluster">
<title>cluster_AuditRecordModule_imports</title>
<polygon fill="none" stroke="#000000" points="220,-78 220,-130 635,-130 635,-78 220,-78"/>
</g>
<g id="clust11" class="cluster">
<title>cluster_AuditRecordModule_providers</title>
<polygon fill="none" stroke="#000000" points="16,-78 16,-130 212,-130 212,-78 16,-78"/>
</g>
<!-- AuditRecordListBarComponent -->
<g id="node1" class="node">
<title>AuditRecordListBarComponent</title>
<polygon fill="#ffffb3" stroke="#000000" points="1667.6371,-122 1472.3629,-122 1472.3629,-86 1667.6371,-86 1667.6371,-122"/>
<text text-anchor="middle" x="1570" y="-99.8" font-family="Times,serif" font-size="14.00" fill="#000000">AuditRecordListBarComponent</text>
</g>
<!-- AuditRecordModule -->
<g id="node6" class="node">
<title>AuditRecordModule</title>
<polygon fill="#8dd3c7" stroke="#000000" points="821.8641,-187 818.8641,-191 797.8641,-191 794.8641,-187 690.1359,-187 690.1359,-151 821.8641,-151 821.8641,-187"/>
<text text-anchor="middle" x="756" y="-164.8" font-family="Times,serif" font-size="14.00" fill="#000000">AuditRecordModule</text>
</g>
<!-- AuditRecordListBarComponent&#45;&gt;AuditRecordModule -->
<g id="edge1" class="edge">
<title>AuditRecordListBarComponent&#45;&gt;AuditRecordModule</title>
<path fill="none" stroke="#000000" d="M1570,-122.0109C1570,-144.4852 1570,-180 1570,-180 1570,-180 831.9235,-180 831.9235,-180"/>
<polygon fill="#000000" stroke="#000000" points="831.9236,-176.5001 821.9235,-180 831.9235,-183.5001 831.9236,-176.5001"/>
</g>
<!-- AuditRecordComponent -->
<g id="node2" class="node">
<title>AuditRecordComponent</title>
<polygon fill="#ffffb3" stroke="#000000" points="1453.647,-122 1300.353,-122 1300.353,-86 1453.647,-86 1453.647,-122"/>
<text text-anchor="middle" x="1377" y="-99.8" font-family="Times,serif" font-size="14.00" fill="#000000">AuditRecordComponent</text>
</g>
<!-- AuditRecordComponent&#45;&gt;AuditRecordModule -->
<g id="edge2" class="edge">
<title>AuditRecordComponent&#45;&gt;AuditRecordModule</title>
<path fill="none" stroke="#000000" d="M1377,-122.1289C1377,-142.5724 1377,-173 1377,-173 1377,-173 831.87,-173 831.87,-173"/>
<polygon fill="#000000" stroke="#000000" points="831.87,-169.5001 821.87,-173 831.8699,-176.5001 831.87,-169.5001"/>
</g>
<!-- AuditRecordDetailsComponent -->
<g id="node3" class="node">
<title>AuditRecordDetailsComponent</title>
<polygon fill="#ffffb3" stroke="#000000" points="1282.799,-122 1089.201,-122 1089.201,-86 1282.799,-86 1282.799,-122"/>
<text text-anchor="middle" x="1186" y="-99.8" font-family="Times,serif" font-size="14.00" fill="#000000">AuditRecordDetailsComponent</text>
</g>
<!-- AuditRecordDetailsComponent&#45;&gt;AuditRecordModule -->
<g id="edge3" class="edge">
<title>AuditRecordDetailsComponent&#45;&gt;AuditRecordModule</title>
<path fill="none" stroke="#000000" d="M1186,-122.2667C1186,-140.5552 1186,-166 1186,-166 1186,-166 832.2451,-166 832.2451,-166"/>
<polygon fill="#000000" stroke="#000000" points="832.2452,-162.5001 822.2451,-166 832.2451,-169.5001 832.2452,-162.5001"/>
</g>
<!-- AuditRecordActionComponent -->
<g id="node4" class="node">
<title>AuditRecordActionComponent</title>
<polygon fill="#ffffb3" stroke="#000000" points="1070.7492,-122 879.2508,-122 879.2508,-86 1070.7492,-86 1070.7492,-122"/>
<text text-anchor="middle" x="975" y="-99.8" font-family="Times,serif" font-size="14.00" fill="#000000">AuditRecordActionComponent</text>
</g>
<!-- AuditRecordActionComponent&#45;&gt;AuditRecordModule -->
<g id="edge4" class="edge">
<title>AuditRecordActionComponent&#45;&gt;AuditRecordModule</title>
<path fill="none" stroke="#000000" d="M975,-122.0091C975,-138.0494 975,-159 975,-159 975,-159 832.0042,-159 832.0042,-159"/>
<polygon fill="#000000" stroke="#000000" points="832.0042,-155.5001 822.0042,-159 832.0042,-162.5001 832.0042,-155.5001"/>
</g>
<!-- AuditRecordOperationComponent -->
<g id="node5" class="node">
<title>AuditRecordOperationComponent</title>
<polygon fill="#ffffb3" stroke="#000000" points="860.6245,-122 651.3755,-122 651.3755,-86 860.6245,-86 860.6245,-122"/>
<text text-anchor="middle" x="756" y="-99.8" font-family="Times,serif" font-size="14.00" fill="#000000">AuditRecordOperationComponent</text>
</g>
<!-- AuditRecordOperationComponent&#45;&gt;AuditRecordModule -->
<g id="edge5" class="edge">
<title>AuditRecordOperationComponent&#45;&gt;AuditRecordModule</title>
<path fill="none" stroke="#000000" d="M756,-122.1061C756,-122.1061 756,-140.991 756,-140.991"/>
<polygon fill="#000000" stroke="#000000" points="752.5001,-140.9909 756,-150.991 759.5001,-140.991 752.5001,-140.9909"/>
</g>
<!-- AuditRecordRoutingModule -->
<g id="node7" class="node">
<title>AuditRecordRoutingModule</title>
<polygon fill="#8dd3c7" stroke="#000000" points="627.4818,-122 624.4818,-126 603.4818,-126 600.4818,-122 450.5182,-122 450.5182,-86 627.4818,-86 627.4818,-122"/>
<text text-anchor="middle" x="539" y="-99.8" font-family="Times,serif" font-size="14.00" fill="#000000">AuditRecordRoutingModule</text>
</g>
<!-- AuditRecordRoutingModule&#45;&gt;AuditRecordModule -->
<g id="edge6" class="edge">
<title>AuditRecordRoutingModule&#45;&gt;AuditRecordModule</title>
<path fill="none" stroke="#000000" d="M539,-122.0091C539,-138.0494 539,-159 539,-159 539,-159 680.009,-159 680.009,-159"/>
<polygon fill="#000000" stroke="#000000" points="680.009,-162.5001 690.009,-159 680.009,-155.5001 680.009,-162.5001"/>
</g>
<!-- SharedModule -->
<g id="node8" class="node">
<title>SharedModule</title>
<polygon fill="#8dd3c7" stroke="#000000" points="432.4231,-122 429.4231,-126 408.4231,-126 405.4231,-122 333.5769,-122 333.5769,-86 432.4231,-86 432.4231,-122"/>
<text text-anchor="middle" x="383" y="-99.8" font-family="Times,serif" font-size="14.00" fill="#000000">SharedModule</text>
</g>
<!-- SharedModule&#45;&gt;AuditRecordModule -->
<g id="edge7" class="edge">
<title>SharedModule&#45;&gt;AuditRecordModule</title>
<path fill="none" stroke="#000000" d="M383,-122.2667C383,-140.5552 383,-166 383,-166 383,-166 679.7449,-166 679.7449,-166"/>
<polygon fill="#000000" stroke="#000000" points="679.7449,-169.5001 689.7449,-166 679.7448,-162.5001 679.7449,-169.5001"/>
</g>
<!-- AuthModule -->
<g id="node9" class="node">
<title>AuthModule</title>
<polygon fill="#8dd3c7" stroke="#000000" points="315.5482,-122 312.5482,-126 291.5482,-126 288.5482,-122 228.4518,-122 228.4518,-86 315.5482,-86 315.5482,-122"/>
<text text-anchor="middle" x="272" y="-99.8" font-family="Times,serif" font-size="14.00" fill="#000000">AuthModule</text>
</g>
<!-- AuthModule&#45;&gt;AuditRecordModule -->
<g id="edge8" class="edge">
<title>AuthModule&#45;&gt;AuditRecordModule</title>
<path fill="none" stroke="#000000" d="M272,-122.1289C272,-142.5724 272,-173 272,-173 272,-173 679.9695,-173 679.9695,-173"/>
<polygon fill="#000000" stroke="#000000" points="679.9695,-176.5001 689.9695,-173 679.9695,-169.5001 679.9695,-176.5001"/>
</g>
<!-- AuditRecordService -->
<g id="node10" class="node">
<title>AuditRecordService</title>
<ellipse fill="#fdb462" stroke="#000000" cx="114" cy="-104" rx="89.746" ry="18"/>
<text text-anchor="middle" x="114" y="-99.8" font-family="Times,serif" font-size="14.00" fill="#000000">AuditRecordService</text>
</g>
<!-- AuditRecordService&#45;&gt;AuditRecordModule -->
<g id="edge9" class="edge">
<title>AuditRecordService&#45;&gt;AuditRecordModule</title>
<path fill="none" stroke="#000000" d="M114,-122.0109C114,-144.4852 114,-180 114,-180 114,-180 680.0126,-180 680.0126,-180"/>
<polygon fill="#000000" stroke="#000000" points="680.0126,-183.5001 690.0126,-180 680.0125,-176.5001 680.0126,-183.5001"/>
</g>
</g>
</svg>
