<?xml version="1.0" encoding="UTF-8" standalone="no"?>
<!DOCTYPE svg PUBLIC "-//W3C//DTD SVG 1.1//EN"
 "http://www.w3.org/Graphics/SVG/1.1/DTD/svg11.dtd">
<!-- Generated by graphviz version 2.40.1 (20161225.0304)
 -->
<!-- Title: dependencies Pages: 1 -->
<svg width="1409pt" height="284pt"
 viewBox="0.00 0.00 1409.00 284.00" xmlns="http://www.w3.org/2000/svg" xmlns:xlink="http://www.w3.org/1999/xlink">
<g id="graph0" class="graph" transform="scale(1 1) rotate(0) translate(4 280)">
<title>dependencies</title>
<polygon fill="#ffffff" stroke="transparent" points="-4,4 -4,-280 1405,-280 1405,4 -4,4"/>
<text text-anchor="start" x="679.5091" y="-42.4" font-family="sans-serif" font-weight="bold" font-size="14.00" fill="#000000">Legend</text>
<polygon fill="#ffffb3" stroke="transparent" points="466.5,-10 466.5,-30 486.5,-30 486.5,-10 466.5,-10"/>
<text text-anchor="start" x="490.129" y="-15.4" font-family="sans-serif" font-size="14.00" fill="#000000"> &#160;Declarations</text>
<polygon fill="#8dd3c7" stroke="transparent" points="579.5,-10 579.5,-30 599.5,-30 599.5,-10 579.5,-10"/>
<text text-anchor="start" x="603.2251" y="-15.4" font-family="sans-serif" font-size="14.00" fill="#000000"> &#160;Module</text>
<polygon fill="#80b1d3" stroke="transparent" points="665.5,-10 665.5,-30 685.5,-30 685.5,-10 665.5,-10"/>
<text text-anchor="start" x="689.2812" y="-15.4" font-family="sans-serif" font-size="14.00" fill="#000000"> &#160;Bootstrap</text>
<polygon fill="#fdb462" stroke="transparent" points="762.5,-10 762.5,-30 782.5,-30 782.5,-10 762.5,-10"/>
<text text-anchor="start" x="786.1732" y="-15.4" font-family="sans-serif" font-size="14.00" fill="#000000"> &#160;Providers</text>
<polygon fill="#fb8072" stroke="transparent" points="858.5,-10 858.5,-30 878.5,-30 878.5,-10 858.5,-10"/>
<text text-anchor="start" x="882.2258" y="-15.4" font-family="sans-serif" font-size="14.00" fill="#000000"> &#160;Exports</text>
<g id="clust1" class="cluster">
<title>cluster_AppModule</title>
<polygon fill="none" stroke="#000000" stroke-dasharray="1,5" points="8,-70 8,-268 1393,-268 1393,-70 8,-70"/>
</g>
<g id="clust2" class="cluster">
<title>cluster_AppModule_declarations</title>
<polygon fill="none" stroke="#000000" points="1263,-78 1263,-130 1385,-130 1385,-78 1263,-78"/>
</g>
<g id="clust4" class="cluster">
<title>cluster_AppModule_imports</title>
<polygon fill="none" stroke="#000000" points="16,-78 16,-130 1255,-130 1255,-78 16,-78"/>
</g>
<g id="clust6" class="cluster">
<title>cluster_AppModule_bootstrap</title>
<polygon fill="none" stroke="#000000" points="627,-208 627,-260 751,-260 751,-208 627,-208"/>
</g>
<!-- AppComponent -->
<g id="node1" class="node">
<title>AppComponent</title>
<polygon fill="#ffffb3" stroke="#000000" points="1376.9399,-122 1271.0601,-122 1271.0601,-86 1376.9399,-86 1376.9399,-122"/>
<text text-anchor="middle" x="1324" y="-99.8" font-family="Times,serif" font-size="14.00" fill="#000000">AppComponent</text>
</g>
<!-- AppModule -->
<g id="node2" class="node">
<title>AppModule</title>
<polygon fill="#8dd3c7" stroke="#000000" points="730.6571,-187 727.6571,-191 706.6571,-191 703.6571,-187 647.3429,-187 647.3429,-151 730.6571,-151 730.6571,-187"/>
<text text-anchor="middle" x="689" y="-164.8" font-family="Times,serif" font-size="14.00" fill="#000000">AppModule</text>
</g>
<!-- AppComponent&#45;&gt;AppModule -->
<g id="edge1" class="edge">
<title>AppComponent&#45;&gt;AppModule</title>
<path fill="none" stroke="#000000" d="M1324,-122.2479C1324,-145.0179 1324,-181 1324,-181 1324,-181 740.6641,-181 740.6641,-181"/>
<polygon fill="#000000" stroke="#000000" points="740.6642,-177.5001 730.6641,-181 740.6641,-184.5001 740.6642,-177.5001"/>
</g>
<!-- AppComponent  -->
<g id="node13" class="node">
<title>AppComponent </title>
<polygon fill="#80b1d3" stroke="#000000" points="743.439,-252 634.561,-252 634.561,-216 743.439,-216 743.439,-252"/>
<text text-anchor="middle" x="689" y="-229.8" font-family="Times,serif" font-size="14.00" fill="#000000">AppComponent </text>
</g>
<!-- AppModule&#45;&gt;AppComponent  -->
<g id="edge12" class="edge">
<title>AppModule&#45;&gt;AppComponent </title>
<path fill="none" stroke="#000000" stroke-dasharray="1,5" d="M689,-187.1061C689,-187.1061 689,-205.991 689,-205.991"/>
<polygon fill="#000000" stroke="#000000" points="685.5001,-205.9909 689,-215.991 692.5001,-205.991 685.5001,-205.9909"/>
</g>
<!-- AboutModule -->
<g id="node3" class="node">
<title>AboutModule</title>
<polygon fill="#8dd3c7" stroke="#000000" points="1247.0481,-122 1244.0481,-126 1223.0481,-126 1220.0481,-122 1152.9519,-122 1152.9519,-86 1247.0481,-86 1247.0481,-122"/>
<text text-anchor="middle" x="1200" y="-99.8" font-family="Times,serif" font-size="14.00" fill="#000000">AboutModule</text>
</g>
<!-- AboutModule&#45;&gt;AppModule -->
<g id="edge2" class="edge">
<title>AboutModule&#45;&gt;AppModule</title>
<path fill="none" stroke="#000000" d="M1200,-122.2843C1200,-143.3211 1200,-175 1200,-175 1200,-175 740.8173,-175 740.8173,-175"/>
<polygon fill="#000000" stroke="#000000" points="740.8173,-171.5001 730.8173,-175 740.8172,-178.5001 740.8173,-171.5001"/>
</g>
<!-- AppsModule -->
<g id="node4" class="node">
<title>AppsModule</title>
<polygon fill="#8dd3c7" stroke="#000000" points="1134.6011,-122 1131.6011,-126 1110.6011,-126 1107.6011,-122 1045.3989,-122 1045.3989,-86 1134.6011,-86 1134.6011,-122"/>
<text text-anchor="middle" x="1090" y="-99.8" font-family="Times,serif" font-size="14.00" fill="#000000">AppsModule</text>
</g>
<!-- AppsModule&#45;&gt;AppModule -->
<g id="edge3" class="edge">
<title>AppsModule&#45;&gt;AppModule</title>
<path fill="none" stroke="#000000" d="M1090,-122.1061C1090,-141.3391 1090,-169 1090,-169 1090,-169 740.7792,-169 740.7792,-169"/>
<polygon fill="#000000" stroke="#000000" points="740.7793,-165.5001 730.7792,-169 740.7792,-172.5001 740.7793,-165.5001"/>
</g>
<!-- AuditRecordModule -->
<g id="node5" class="node">
<title>AuditRecordModule</title>
<polygon fill="#8dd3c7" stroke="#000000" points="1027.8641,-122 1024.8641,-126 1003.8641,-126 1000.8641,-122 896.1359,-122 896.1359,-86 1027.8641,-86 1027.8641,-122"/>
<text text-anchor="middle" x="962" y="-99.8" font-family="Times,serif" font-size="14.00" fill="#000000">AuditRecordModule</text>
</g>
<!-- AuditRecordModule&#45;&gt;AppModule -->
<g id="edge4" class="edge">
<title>AuditRecordModule&#45;&gt;AppModule</title>
<path fill="none" stroke="#000000" d="M962,-122.0225C962,-139.3734 962,-163 962,-163 962,-163 740.76,-163 740.76,-163"/>
<polygon fill="#000000" stroke="#000000" points="740.76,-159.5001 730.76,-163 740.76,-166.5001 740.76,-159.5001"/>
</g>
<!-- AppRoutingModule -->
<g id="node6" class="node">
<title>AppRoutingModule</title>
<polygon fill="#8dd3c7" stroke="#000000" points="878.2744,-122 875.2744,-126 854.2744,-126 851.2744,-122 749.7256,-122 749.7256,-86 878.2744,-86 878.2744,-122"/>
<text text-anchor="middle" x="814" y="-99.8" font-family="Times,serif" font-size="14.00" fill="#000000">AppRoutingModule</text>
</g>
<!-- AppRoutingModule&#45;&gt;AppModule -->
<g id="edge5" class="edge">
<title>AppRoutingModule&#45;&gt;AppModule</title>
<path fill="none" stroke="#000000" d="M814,-122.2396C814,-137.5706 814,-157 814,-157 814,-157 740.9709,-157 740.9709,-157"/>
<polygon fill="#000000" stroke="#000000" points="740.971,-153.5001 730.9709,-157 740.9709,-160.5001 740.971,-153.5001"/>
</g>
<!-- JobsModule -->
<g id="node7" class="node">
<title>JobsModule</title>
<polygon fill="#8dd3c7" stroke="#000000" points="731.4401,-122 728.4401,-126 707.4401,-126 704.4401,-122 646.5599,-122 646.5599,-86 731.4401,-86 731.4401,-122"/>
<text text-anchor="middle" x="689" y="-99.8" font-family="Times,serif" font-size="14.00" fill="#000000">JobsModule</text>
</g>
<!-- JobsModule&#45;&gt;AppModule -->
<g id="edge6" class="edge">
<title>JobsModule&#45;&gt;AppModule</title>
<path fill="none" stroke="#000000" d="M689,-122.1061C689,-122.1061 689,-140.991 689,-140.991"/>
<polygon fill="#000000" stroke="#000000" points="685.5001,-140.9909 689,-150.991 692.5001,-140.991 685.5001,-140.9909"/>
</g>
<!-- RuntimeAppsModule -->
<g id="node8" class="node">
<title>RuntimeAppsModule</title>
<polygon fill="#8dd3c7" stroke="#000000" points="628.8244,-122 625.8244,-126 604.8244,-126 601.8244,-122 491.1756,-122 491.1756,-86 628.8244,-86 628.8244,-122"/>
<text text-anchor="middle" x="560" y="-99.8" font-family="Times,serif" font-size="14.00" fill="#000000">RuntimeAppsModule</text>
</g>
<!-- RuntimeAppsModule&#45;&gt;AppModule -->
<g id="edge7" class="edge">
<title>RuntimeAppsModule&#45;&gt;AppModule</title>
<path fill="none" stroke="#000000" d="M560,-122.2396C560,-137.5706 560,-157 560,-157 560,-157 637.1174,-157 637.1174,-157"/>
<polygon fill="#000000" stroke="#000000" points="637.1174,-160.5001 647.1174,-157 637.1174,-153.5001 637.1174,-160.5001"/>
</g>
<!-- SharedModule -->
<g id="node9" class="node">
<title>SharedModule</title>
<polygon fill="#8dd3c7" stroke="#000000" points="473.4231,-122 470.4231,-126 449.4231,-126 446.4231,-122 374.5769,-122 374.5769,-86 473.4231,-86 473.4231,-122"/>
<text text-anchor="middle" x="424" y="-99.8" font-family="Times,serif" font-size="14.00" fill="#000000">SharedModule</text>
</g>
<!-- SharedModule&#45;&gt;AppModule -->
<g id="edge8" class="edge">
<title>SharedModule&#45;&gt;AppModule</title>
<path fill="none" stroke="#000000" d="M424,-122.0225C424,-139.3734 424,-163 424,-163 424,-163 637.3022,-163 637.3022,-163"/>
<polygon fill="#000000" stroke="#000000" points="637.3023,-166.5001 647.3022,-163 637.3022,-159.5001 637.3023,-166.5001"/>
</g>
<!-- StreamsModule -->
<g id="node10" class="node">
<title>StreamsModule</title>
<polygon fill="#8dd3c7" stroke="#000000" points="356.1486,-122 353.1486,-126 332.1486,-126 329.1486,-122 251.8514,-122 251.8514,-86 356.1486,-86 356.1486,-122"/>
<text text-anchor="middle" x="304" y="-99.8" font-family="Times,serif" font-size="14.00" fill="#000000">StreamsModule</text>
</g>
<!-- StreamsModule&#45;&gt;AppModule -->
<g id="edge9" class="edge">
<title>StreamsModule&#45;&gt;AppModule</title>
<path fill="none" stroke="#000000" d="M304,-122.1061C304,-141.3391 304,-169 304,-169 304,-169 637.0654,-169 637.0654,-169"/>
<polygon fill="#000000" stroke="#000000" points="637.0654,-172.5001 647.0654,-169 637.0653,-165.5001 637.0654,-172.5001"/>
</g>
<!-- TasksModule -->
<g id="node11" class="node">
<title>TasksModule</title>
<polygon fill="#8dd3c7" stroke="#000000" points="234.2064,-122 231.2064,-126 210.2064,-126 207.2064,-122 141.7936,-122 141.7936,-86 234.2064,-86 234.2064,-122"/>
<text text-anchor="middle" x="188" y="-99.8" font-family="Times,serif" font-size="14.00" fill="#000000">TasksModule</text>
</g>
<!-- TasksModule&#45;&gt;AppModule -->
<g id="edge10" class="edge">
<title>TasksModule&#45;&gt;AppModule</title>
<path fill="none" stroke="#000000" d="M188,-122.2843C188,-143.3211 188,-175 188,-175 188,-175 637.1467,-175 637.1467,-175"/>
<polygon fill="#000000" stroke="#000000" points="637.1468,-178.5001 647.1467,-175 637.1467,-171.5001 637.1468,-178.5001"/>
</g>
<!-- LayoutModule -->
<g id="node12" class="node">
<title>LayoutModule</title>
<polygon fill="#8dd3c7" stroke="#000000" points="123.7078,-122 120.7078,-126 99.7078,-126 96.7078,-122 24.2922,-122 24.2922,-86 123.7078,-86 123.7078,-122"/>
<text text-anchor="middle" x="74" y="-99.8" font-family="Times,serif" font-size="14.00" fill="#000000">LayoutModule</text>
</g>
<!-- LayoutModule&#45;&gt;AppModule -->
<g id="edge11" class="edge">
<title>LayoutModule&#45;&gt;AppModule</title>
<path fill="none" stroke="#000000" d="M74,-122.2479C74,-145.0179 74,-181 74,-181 74,-181 637.2121,-181 637.2121,-181"/>
<polygon fill="#000000" stroke="#000000" points="637.2121,-184.5001 647.2121,-181 637.212,-177.5001 637.2121,-184.5001"/>
</g>
</g>
</svg>
