<?xml version="1.0" encoding="UTF-8" standalone="no"?>
<!DOCTYPE svg PUBLIC "-//W3C//DTD SVG 1.1//EN"
 "http://www.w3.org/Graphics/SVG/1.1/DTD/svg11.dtd">
<!-- Generated by graphviz version 2.40.1 (20161225.0304)
 -->
<!-- Title: dependencies Pages: 1 -->
<svg width="1121pt" height="211pt"
 viewBox="0.00 0.00 1121.00 211.00" xmlns="http://www.w3.org/2000/svg" xmlns:xlink="http://www.w3.org/1999/xlink">
<g id="graph0" class="graph" transform="scale(1 1) rotate(0) translate(4 207)">
<title>dependencies</title>
<polygon fill="#ffffff" stroke="transparent" points="-4,4 -4,-207 1117,-207 1117,4 -4,4"/>
<text text-anchor="start" x="535.5091" y="-42.4" font-family="sans-serif" font-weight="bold" font-size="14.00" fill="#000000">Legend</text>
<polygon fill="#ffffb3" stroke="transparent" points="322.5,-10 322.5,-30 342.5,-30 342.5,-10 322.5,-10"/>
<text text-anchor="start" x="346.129" y="-15.4" font-family="sans-serif" font-size="14.00" fill="#000000"> &#160;Declarations</text>
<polygon fill="#8dd3c7" stroke="transparent" points="435.5,-10 435.5,-30 455.5,-30 455.5,-10 435.5,-10"/>
<text text-anchor="start" x="459.2251" y="-15.4" font-family="sans-serif" font-size="14.00" fill="#000000"> &#160;Module</text>
<polygon fill="#80b1d3" stroke="transparent" points="521.5,-10 521.5,-30 541.5,-30 541.5,-10 521.5,-10"/>
<text text-anchor="start" x="545.2812" y="-15.4" font-family="sans-serif" font-size="14.00" fill="#000000"> &#160;Bootstrap</text>
<polygon fill="#fdb462" stroke="transparent" points="618.5,-10 618.5,-30 638.5,-30 638.5,-10 618.5,-10"/>
<text text-anchor="start" x="642.1732" y="-15.4" font-family="sans-serif" font-size="14.00" fill="#000000"> &#160;Providers</text>
<polygon fill="#fb8072" stroke="transparent" points="714.5,-10 714.5,-30 734.5,-30 734.5,-10 714.5,-10"/>
<text text-anchor="start" x="738.2258" y="-15.4" font-family="sans-serif" font-size="14.00" fill="#000000"> &#160;Exports</text>
<g id="clust1" class="cluster">
<title>cluster_RuntimeAppsModule</title>
<polygon fill="none" stroke="#000000" stroke-dasharray="1,5" points="8,-70 8,-195 1105,-195 1105,-70 8,-70"/>
</g>
<g id="clust2" class="cluster">
<title>cluster_RuntimeAppsModule_declarations</title>
<polygon fill="none" stroke="#000000" points="550,-78 550,-130 1097,-130 1097,-78 550,-78"/>
</g>
<g id="clust6" class="cluster">
<title>cluster_RuntimeAppsModule_imports</title>
<polygon fill="none" stroke="#000000" points="228,-78 228,-130 542,-130 542,-78 228,-78"/>
</g>
<g id="clust9" class="cluster">
<title>cluster_RuntimeAppsModule_providers</title>
<polygon fill="none" stroke="#000000" points="16,-78 16,-130 220,-130 220,-78 16,-78"/>
</g>
<!-- RuntimeAppsComponent -->
<g id="node1" class="node">
<title>RuntimeAppsComponent</title>
<polygon fill="#ffffb3" stroke="#000000" points="1088.6066,-122 929.3934,-122 929.3934,-86 1088.6066,-86 1088.6066,-122"/>
<text text-anchor="middle" x="1009" y="-99.8" font-family="Times,serif" font-size="14.00" fill="#000000">RuntimeAppsComponent</text>
</g>
<!-- RuntimeAppsModule -->
<g id="node4" class="node">
<title>RuntimeAppsModule</title>
<polygon fill="#8dd3c7" stroke="#000000" points="614.8244,-187 611.8244,-191 590.8244,-191 587.8244,-187 477.1756,-187 477.1756,-151 614.8244,-151 614.8244,-187"/>
<text text-anchor="middle" x="546" y="-164.8" font-family="Times,serif" font-size="14.00" fill="#000000">RuntimeAppsModule</text>
</g>
<!-- RuntimeAppsComponent&#45;&gt;RuntimeAppsModule -->
<g id="edge1" class="edge">
<title>RuntimeAppsComponent&#45;&gt;RuntimeAppsModule</title>
<path fill="none" stroke="#000000" d="M1009,-122.2843C1009,-143.3211 1009,-175 1009,-175 1009,-175 624.8158,-175 624.8158,-175"/>
<polygon fill="#000000" stroke="#000000" points="624.8159,-171.5001 614.8158,-175 624.8158,-178.5001 624.8159,-171.5001"/>
</g>
<!-- RuntimeAppComponent -->
<g id="node2" class="node">
<title>RuntimeAppComponent</title>
<polygon fill="#ffffb3" stroke="#000000" points="911.6624,-122 758.3376,-122 758.3376,-86 911.6624,-86 911.6624,-122"/>
<text text-anchor="middle" x="835" y="-99.8" font-family="Times,serif" font-size="14.00" fill="#000000">RuntimeAppComponent</text>
</g>
<!-- RuntimeAppComponent&#45;&gt;RuntimeAppsModule -->
<g id="edge2" class="edge">
<title>RuntimeAppComponent&#45;&gt;RuntimeAppsModule</title>
<path fill="none" stroke="#000000" d="M835,-122.0225C835,-139.3734 835,-163 835,-163 835,-163 624.8555,-163 624.8555,-163"/>
<polygon fill="#000000" stroke="#000000" points="624.8556,-159.5001 614.8555,-163 624.8555,-166.5001 624.8556,-159.5001"/>
</g>
<!-- RuntimeAppStateComponent -->
<g id="node3" class="node">
<title>RuntimeAppStateComponent</title>
<polygon fill="#ffffb3" stroke="#000000" points="739.6553,-122 558.3447,-122 558.3447,-86 739.6553,-86 739.6553,-122"/>
<text text-anchor="middle" x="649" y="-99.8" font-family="Times,serif" font-size="14.00" fill="#000000">RuntimeAppStateComponent</text>
</g>
<!-- RuntimeAppStateComponent&#45;&gt;RuntimeAppsModule -->
<g id="edge3" class="edge">
<title>RuntimeAppStateComponent&#45;&gt;RuntimeAppsModule</title>
<path fill="none" stroke="#000000" d="M586.4173,-122.1061C586.4173,-122.1061 586.4173,-140.991 586.4173,-140.991"/>
<polygon fill="#000000" stroke="#000000" points="582.9173,-140.9909 586.4173,-150.991 589.9173,-140.991 582.9173,-140.9909"/>
</g>
<!-- RuntimeAppsRoutingModule -->
<g id="node5" class="node">
<title>RuntimeAppsRoutingModule</title>
<polygon fill="#8dd3c7" stroke="#000000" points="534.4423,-122 531.4423,-126 510.4423,-126 507.4423,-122 351.5577,-122 351.5577,-86 534.4423,-86 534.4423,-122"/>
<text text-anchor="middle" x="443" y="-99.8" font-family="Times,serif" font-size="14.00" fill="#000000">RuntimeAppsRoutingModule</text>
</g>
<!-- RuntimeAppsRoutingModule&#45;&gt;RuntimeAppsModule -->
<g id="edge4" class="edge">
<title>RuntimeAppsRoutingModule&#45;&gt;RuntimeAppsModule</title>
<path fill="none" stroke="#000000" d="M505.7795,-122.1061C505.7795,-122.1061 505.7795,-140.991 505.7795,-140.991"/>
<polygon fill="#000000" stroke="#000000" points="502.2795,-140.9909 505.7795,-150.991 509.2795,-140.991 502.2795,-140.9909"/>
</g>
<!-- SharedModule -->
<g id="node6" class="node">
<title>SharedModule</title>
<polygon fill="#8dd3c7" stroke="#000000" points="334.4231,-122 331.4231,-126 310.4231,-126 307.4231,-122 235.5769,-122 235.5769,-86 334.4231,-86 334.4231,-122"/>
<text text-anchor="middle" x="285" y="-99.8" font-family="Times,serif" font-size="14.00" fill="#000000">SharedModule</text>
</g>
<!-- SharedModule&#45;&gt;RuntimeAppsModule -->
<g id="edge5" class="edge">
<title>SharedModule&#45;&gt;RuntimeAppsModule</title>
<path fill="none" stroke="#000000" d="M285,-122.0225C285,-139.3734 285,-163 285,-163 285,-163 467.0839,-163 467.0839,-163"/>
<polygon fill="#000000" stroke="#000000" points="467.084,-166.5001 477.0839,-163 467.0839,-159.5001 467.084,-166.5001"/>
</g>
<!-- RuntimeAppsService -->
<g id="node7" class="node">
<title>RuntimeAppsService</title>
<ellipse fill="#fdb462" stroke="#000000" cx="118" cy="-104" rx="93.7784" ry="18"/>
<text text-anchor="middle" x="118" y="-99.8" font-family="Times,serif" font-size="14.00" fill="#000000">RuntimeAppsService</text>
</g>
<!-- RuntimeAppsService&#45;&gt;RuntimeAppsModule -->
<g id="edge6" class="edge">
<title>RuntimeAppsService&#45;&gt;RuntimeAppsModule</title>
<path fill="none" stroke="#000000" d="M118,-122.2843C118,-143.3211 118,-175 118,-175 118,-175 467.2344,-175 467.2344,-175"/>
<polygon fill="#000000" stroke="#000000" points="467.2344,-178.5001 477.2344,-175 467.2344,-171.5001 467.2344,-178.5001"/>
</g>
</g>
</svg>
