<?xml version="1.0" encoding="UTF-8" standalone="no"?>
<!DOCTYPE svg PUBLIC "-//W3C//DTD SVG 1.1//EN"
 "http://www.w3.org/Graphics/SVG/1.1/DTD/svg11.dtd">
<!-- Generated by graphviz version 2.40.1 (20161225.0304)
 -->
<!-- Title: dependencies Pages: 1 -->
<svg width="504pt" height="211pt"
 viewBox="0.00 0.00 504.00 211.00" xmlns="http://www.w3.org/2000/svg" xmlns:xlink="http://www.w3.org/1999/xlink">
<g id="graph0" class="graph" transform="scale(1 1) rotate(0) translate(4 207)">
<title>dependencies</title>
<polygon fill="#ffffff" stroke="transparent" points="-4,4 -4,-207 500,-207 500,4 -4,4"/>
<text text-anchor="start" x="227.0091" y="-42.4" font-family="sans-serif" font-weight="bold" font-size="14.00" fill="#000000">Legend</text>
<polygon fill="#ffffb3" stroke="transparent" points="14,-10 14,-30 34,-30 34,-10 14,-10"/>
<text text-anchor="start" x="37.629" y="-15.4" font-family="sans-serif" font-size="14.00" fill="#000000"> &#160;Declarations</text>
<polygon fill="#8dd3c7" stroke="transparent" points="127,-10 127,-30 147,-30 147,-10 127,-10"/>
<text text-anchor="start" x="150.7251" y="-15.4" font-family="sans-serif" font-size="14.00" fill="#000000"> &#160;Module</text>
<polygon fill="#80b1d3" stroke="transparent" points="213,-10 213,-30 233,-30 233,-10 213,-10"/>
<text text-anchor="start" x="236.7812" y="-15.4" font-family="sans-serif" font-size="14.00" fill="#000000"> &#160;Bootstrap</text>
<polygon fill="#fdb462" stroke="transparent" points="310,-10 310,-30 330,-30 330,-10 310,-10"/>
<text text-anchor="start" x="333.6732" y="-15.4" font-family="sans-serif" font-size="14.00" fill="#000000"> &#160;Providers</text>
<polygon fill="#fb8072" stroke="transparent" points="406,-10 406,-30 426,-30 426,-10 406,-10"/>
<text text-anchor="start" x="429.7258" y="-15.4" font-family="sans-serif" font-size="14.00" fill="#000000"> &#160;Exports</text>
<g id="clust1" class="cluster">
<title>cluster_GrafanaModule</title>
<polygon fill="none" stroke="#000000" stroke-dasharray="1,5" points="61,-70 61,-195 435,-195 435,-70 61,-70"/>
</g>
<g id="clust6" class="cluster">
<title>cluster_GrafanaModule_providers</title>
<polygon fill="none" stroke="#000000" points="69,-78 69,-130 427,-130 427,-78 69,-78"/>
</g>
<!-- GrafanaService -->
<g id="node1" class="node">
<title>GrafanaService</title>
<ellipse fill="#fdb462" stroke="#000000" cx="348" cy="-104" rx="71.163" ry="18"/>
<text text-anchor="middle" x="348" y="-99.8" font-family="Times,serif" font-size="14.00" fill="#000000">GrafanaService</text>
</g>
<!-- GrafanaModule -->
<g id="node3" class="node">
<title>GrafanaModule</title>
<polygon fill="#8dd3c7" stroke="#000000" points="310.1221,-187 307.1221,-191 286.1221,-191 283.1221,-187 205.8779,-187 205.8779,-151 310.1221,-151 310.1221,-187"/>
<text text-anchor="middle" x="258" y="-164.8" font-family="Times,serif" font-size="14.00" fill="#000000">GrafanaModule</text>
</g>
<!-- GrafanaService&#45;&gt;GrafanaModule -->
<g id="edge1" class="edge">
<title>GrafanaService&#45;&gt;GrafanaModule</title>
<path fill="none" stroke="#000000" d="M293.6146,-115.6207C293.6146,-115.6207 293.6146,-140.8534 293.6146,-140.8534"/>
<polygon fill="#000000" stroke="#000000" points="290.1147,-140.8533 293.6146,-150.8534 297.1147,-140.8534 290.1147,-140.8533"/>
</g>
<!-- SharedAboutService -->
<g id="node2" class="node">
<title>SharedAboutService</title>
<ellipse fill="#fdb462" stroke="#000000" cx="168" cy="-104" rx="90.8916" ry="18"/>
<text text-anchor="middle" x="168" y="-99.8" font-family="Times,serif" font-size="14.00" fill="#000000">SharedAboutService</text>
</g>
<!-- SharedAboutService&#45;&gt;GrafanaModule -->
<g id="edge2" class="edge">
<title>SharedAboutService&#45;&gt;GrafanaModule</title>
<path fill="none" stroke="#000000" d="M232.3175,-116.8419C232.3175,-116.8419 232.3175,-140.5231 232.3175,-140.5231"/>
<polygon fill="#000000" stroke="#000000" points="228.8176,-140.523 232.3175,-150.5231 235.8176,-140.5231 228.8176,-140.523"/>
</g>
</g>
</svg>
