<?xml version="1.0" encoding="UTF-8" standalone="no"?>
<!DOCTYPE svg PUBLIC "-//W3C//DTD SVG 1.1//EN"
 "http://www.w3.org/Graphics/SVG/1.1/DTD/svg11.dtd">
<!-- Generated by graphviz version 2.40.1 (20161225.0304)
 -->
<!-- Title: dependencies Pages: 1 -->
<svg width="1754pt" height="284pt"
 viewBox="0.00 0.00 1754.00 284.00" xmlns="http://www.w3.org/2000/svg" xmlns:xlink="http://www.w3.org/1999/xlink">
<g id="graph0" class="graph" transform="scale(1 1) rotate(0) translate(4 280)">
<title>dependencies</title>
<polygon fill="#ffffff" stroke="transparent" points="-4,4 -4,-280 1750,-280 1750,4 -4,4"/>
<text text-anchor="start" x="852.0091" y="-42.4" font-family="sans-serif" font-weight="bold" font-size="14.00" fill="#000000">Legend</text>
<polygon fill="#ffffb3" stroke="transparent" points="639,-10 639,-30 659,-30 659,-10 639,-10"/>
<text text-anchor="start" x="662.629" y="-15.4" font-family="sans-serif" font-size="14.00" fill="#000000"> &#160;Declarations</text>
<polygon fill="#8dd3c7" stroke="transparent" points="752,-10 752,-30 772,-30 772,-10 752,-10"/>
<text text-anchor="start" x="775.7251" y="-15.4" font-family="sans-serif" font-size="14.00" fill="#000000"> &#160;Module</text>
<polygon fill="#80b1d3" stroke="transparent" points="838,-10 838,-30 858,-30 858,-10 838,-10"/>
<text text-anchor="start" x="861.7812" y="-15.4" font-family="sans-serif" font-size="14.00" fill="#000000"> &#160;Bootstrap</text>
<polygon fill="#fdb462" stroke="transparent" points="935,-10 935,-30 955,-30 955,-10 935,-10"/>
<text text-anchor="start" x="958.6732" y="-15.4" font-family="sans-serif" font-size="14.00" fill="#000000"> &#160;Providers</text>
<polygon fill="#fb8072" stroke="transparent" points="1031,-10 1031,-30 1051,-30 1051,-10 1031,-10"/>
<text text-anchor="start" x="1054.7258" y="-15.4" font-family="sans-serif" font-size="14.00" fill="#000000"> &#160;Exports</text>
<g id="clust1" class="cluster">
<title>cluster_AuthModule</title>
<polygon fill="none" stroke="#000000" stroke-dasharray="1,5" points="8,-70 8,-268 1738,-268 1738,-70 8,-70"/>
</g>
<g id="clust2" class="cluster">
<title>cluster_AuthModule_declarations</title>
<polygon fill="none" stroke="#000000" points="732,-78 732,-130 1730,-130 1730,-78 732,-78"/>
</g>
<g id="clust9" class="cluster">
<title>cluster_AuthModule_imports</title>
<polygon fill="none" stroke="#000000" points="459,-78 459,-130 724,-130 724,-78 459,-78"/>
</g>
<g id="clust10" class="cluster">
<title>cluster_AuthModule_exports</title>
<polygon fill="none" stroke="#000000" points="680,-208 680,-260 946,-260 946,-208 680,-208"/>
</g>
<g id="clust12" class="cluster">
<title>cluster_AuthModule_providers</title>
<polygon fill="none" stroke="#000000" points="16,-78 16,-130 451,-130 451,-78 16,-78"/>
</g>
<!-- CapsLockDirective -->
<g id="node1" class="node">
<title>CapsLockDirective</title>
<polygon fill="#ffffb3" stroke="#000000" points="1722.3459,-122 1597.6541,-122 1597.6541,-86 1722.3459,-86 1722.3459,-122"/>
<text text-anchor="middle" x="1660" y="-99.8" font-family="Times,serif" font-size="14.00" fill="#000000">CapsLockDirective</text>
</g>
<!-- AuthModule -->
<g id="node7" class="node">
<title>AuthModule</title>
<polygon fill="#8dd3c7" stroke="#000000" points="862.5482,-187 859.5482,-191 838.5482,-191 835.5482,-187 775.4518,-187 775.4518,-151 862.5482,-151 862.5482,-187"/>
<text text-anchor="middle" x="819" y="-164.8" font-family="Times,serif" font-size="14.00" fill="#000000">AuthModule</text>
</g>
<!-- CapsLockDirective&#45;&gt;AuthModule -->
<g id="edge1" class="edge">
<title>CapsLockDirective&#45;&gt;AuthModule</title>
<path fill="none" stroke="#000000" d="M1660,-122.2479C1660,-145.0179 1660,-181 1660,-181 1660,-181 872.7379,-181 872.7379,-181"/>
<polygon fill="#000000" stroke="#000000" points="872.7379,-177.5001 862.7379,-181 872.7378,-184.5001 872.7379,-177.5001"/>
</g>
<!-- AuthenticationRequiredComponent -->
<g id="node2" class="node">
<title>AuthenticationRequiredComponent</title>
<polygon fill="#ffffb3" stroke="#000000" points="1579.8529,-122 1364.1471,-122 1364.1471,-86 1579.8529,-86 1579.8529,-122"/>
<text text-anchor="middle" x="1472" y="-99.8" font-family="Times,serif" font-size="14.00" fill="#000000">AuthenticationRequiredComponent</text>
</g>
<!-- AuthenticationRequiredComponent&#45;&gt;AuthModule -->
<g id="edge2" class="edge">
<title>AuthenticationRequiredComponent&#45;&gt;AuthModule</title>
<path fill="none" stroke="#000000" d="M1472,-122.2843C1472,-143.3211 1472,-175 1472,-175 1472,-175 872.6047,-175 872.6047,-175"/>
<polygon fill="#000000" stroke="#000000" points="872.6047,-171.5001 862.6047,-175 872.6046,-178.5001 872.6047,-171.5001"/>
</g>
<!-- FeatureDisabledComponent -->
<g id="node3" class="node">
<title>FeatureDisabledComponent</title>
<polygon fill="#ffffb3" stroke="#000000" points="1346.5716,-122 1173.4284,-122 1173.4284,-86 1346.5716,-86 1346.5716,-122"/>
<text text-anchor="middle" x="1260" y="-99.8" font-family="Times,serif" font-size="14.00" fill="#000000">FeatureDisabledComponent</text>
</g>
<!-- FeatureDisabledComponent&#45;&gt;AuthModule -->
<g id="edge3" class="edge">
<title>FeatureDisabledComponent&#45;&gt;AuthModule</title>
<path fill="none" stroke="#000000" d="M1260,-122.1061C1260,-141.3391 1260,-169 1260,-169 1260,-169 872.897,-169 872.897,-169"/>
<polygon fill="#000000" stroke="#000000" points="872.8971,-165.5001 862.897,-169 872.897,-172.5001 872.8971,-165.5001"/>
</g>
<!-- LogoutComponent -->
<g id="node4" class="node">
<title>LogoutComponent</title>
<polygon fill="#ffffb3" stroke="#000000" points="1155.7758,-122 1034.2242,-122 1034.2242,-86 1155.7758,-86 1155.7758,-122"/>
<text text-anchor="middle" x="1095" y="-99.8" font-family="Times,serif" font-size="14.00" fill="#000000">LogoutComponent</text>
</g>
<!-- LogoutComponent&#45;&gt;AuthModule -->
<g id="edge4" class="edge">
<title>LogoutComponent&#45;&gt;AuthModule</title>
<path fill="none" stroke="#000000" d="M1095,-122.0225C1095,-139.3734 1095,-163 1095,-163 1095,-163 872.733,-163 872.733,-163"/>
<polygon fill="#000000" stroke="#000000" points="872.7331,-159.5001 862.733,-163 872.733,-166.5001 872.7331,-159.5001"/>
</g>
<!-- RolesDirective -->
<g id="node5" class="node">
<title>RolesDirective</title>
<polygon fill="#ffffb3" stroke="#000000" points="1015.9692,-122 916.0308,-122 916.0308,-86 1015.9692,-86 1015.9692,-122"/>
<text text-anchor="middle" x="966" y="-99.8" font-family="Times,serif" font-size="14.00" fill="#000000">RolesDirective</text>
</g>
<!-- RolesDirective&#45;&gt;AuthModule -->
<g id="edge5" class="edge">
<title>RolesDirective&#45;&gt;AuthModule</title>
<path fill="none" stroke="#000000" d="M926.875,-122.2396C926.875,-137.5706 926.875,-157 926.875,-157 926.875,-157 872.5659,-157 872.5659,-157"/>
<polygon fill="#000000" stroke="#000000" points="872.566,-153.5001 862.5659,-157 872.5659,-160.5001 872.566,-153.5001"/>
</g>
<!-- RolesMissingComponent -->
<g id="node6" class="node">
<title>RolesMissingComponent</title>
<polygon fill="#ffffb3" stroke="#000000" points="898.3342,-122 739.6658,-122 739.6658,-86 898.3342,-86 898.3342,-122"/>
<text text-anchor="middle" x="819" y="-99.8" font-family="Times,serif" font-size="14.00" fill="#000000">RolesMissingComponent</text>
</g>
<!-- RolesMissingComponent&#45;&gt;AuthModule -->
<g id="edge6" class="edge">
<title>RolesMissingComponent&#45;&gt;AuthModule</title>
<path fill="none" stroke="#000000" d="M819,-122.1061C819,-122.1061 819,-140.991 819,-140.991"/>
<polygon fill="#000000" stroke="#000000" points="815.5001,-140.9909 819,-150.991 822.5001,-140.991 815.5001,-140.9909"/>
</g>
<!-- RolesDirective  -->
<g id="node10" class="node">
<title>RolesDirective </title>
<polygon fill="#fb8072" stroke="#000000" points="937.9703,-252 834.0297,-252 834.0297,-216 937.9703,-216 937.9703,-252"/>
<text text-anchor="middle" x="886" y="-229.8" font-family="Times,serif" font-size="14.00" fill="#000000">RolesDirective </text>
</g>
<!-- AuthModule&#45;&gt;RolesDirective  -->
<g id="edge9" class="edge">
<title>AuthModule&#45;&gt;RolesDirective </title>
<path fill="none" stroke="#000000" stroke-dasharray="5,2" d="M848.5195,-187.1061C848.5195,-187.1061 848.5195,-205.991 848.5195,-205.991"/>
<polygon fill="#000000" stroke="#000000" points="845.0195,-205.9909 848.5195,-215.991 852.0195,-205.991 845.0195,-205.9909"/>
</g>
<!-- CapsLockDirective  -->
<g id="node11" class="node">
<title>CapsLockDirective </title>
<polygon fill="#fb8072" stroke="#000000" points="816.3463,-252 687.6537,-252 687.6537,-216 816.3463,-216 816.3463,-252"/>
<text text-anchor="middle" x="752" y="-229.8" font-family="Times,serif" font-size="14.00" fill="#000000">CapsLockDirective </text>
</g>
<!-- AuthModule&#45;&gt;CapsLockDirective  -->
<g id="edge10" class="edge">
<title>AuthModule&#45;&gt;CapsLockDirective </title>
<path fill="none" stroke="#000000" stroke-dasharray="5,2" d="M795.6997,-187.1061C795.6997,-187.1061 795.6997,-205.991 795.6997,-205.991"/>
<polygon fill="#000000" stroke="#000000" points="792.1998,-205.9909 795.6997,-215.991 799.1998,-205.991 792.1998,-205.9909"/>
</g>
<!-- AuthRoutingModule -->
<g id="node8" class="node">
<title>AuthRoutingModule</title>
<polygon fill="#8dd3c7" stroke="#000000" points="716.1652,-122 713.1652,-126 692.1652,-126 689.1652,-122 583.8348,-122 583.8348,-86 716.1652,-86 716.1652,-122"/>
<text text-anchor="middle" x="650" y="-99.8" font-family="Times,serif" font-size="14.00" fill="#000000">AuthRoutingModule</text>
</g>
<!-- AuthRoutingModule&#45;&gt;AuthModule -->
<g id="edge7" class="edge">
<title>AuthRoutingModule&#45;&gt;AuthModule</title>
<path fill="none" stroke="#000000" d="M702.0798,-122.2396C702.0798,-137.5706 702.0798,-157 702.0798,-157 702.0798,-157 765.1306,-157 765.1306,-157"/>
<polygon fill="#000000" stroke="#000000" points="765.1306,-160.5001 775.1306,-157 765.1305,-153.5001 765.1306,-160.5001"/>
</g>
<!-- SharedModule -->
<g id="node9" class="node">
<title>SharedModule</title>
<polygon fill="#8dd3c7" stroke="#000000" points="565.4231,-122 562.4231,-126 541.4231,-126 538.4231,-122 466.5769,-122 466.5769,-86 565.4231,-86 565.4231,-122"/>
<text text-anchor="middle" x="516" y="-99.8" font-family="Times,serif" font-size="14.00" fill="#000000">SharedModule</text>
</g>
<!-- SharedModule&#45;&gt;AuthModule -->
<g id="edge8" class="edge">
<title>SharedModule&#45;&gt;AuthModule</title>
<path fill="none" stroke="#000000" d="M516,-122.0225C516,-139.3734 516,-163 516,-163 516,-163 765.2648,-163 765.2648,-163"/>
<polygon fill="#000000" stroke="#000000" points="765.2648,-166.5001 775.2648,-163 765.2648,-159.5001 765.2648,-166.5001"/>
</g>
<!-- AuthGuard -->
<g id="node12" class="node">
<title>AuthGuard</title>
<ellipse fill="#fdb462" stroke="#000000" cx="389" cy="-104" rx="54.4566" ry="18"/>
<text text-anchor="middle" x="389" y="-99.8" font-family="Times,serif" font-size="14.00" fill="#000000">AuthGuard</text>
</g>
<!-- AuthGuard&#45;&gt;AuthModule -->
<g id="edge11" class="edge">
<title>AuthGuard&#45;&gt;AuthModule</title>
<path fill="none" stroke="#000000" d="M389,-122.1061C389,-141.3391 389,-169 389,-169 389,-169 765.4029,-169 765.4029,-169"/>
<polygon fill="#000000" stroke="#000000" points="765.403,-172.5001 775.4029,-169 765.4029,-165.5001 765.403,-172.5001"/>
</g>
<!-- AuthService -->
<g id="node13" class="node">
<title>AuthService</title>
<ellipse fill="#fdb462" stroke="#000000" cx="257" cy="-104" rx="59.1083" ry="18"/>
<text text-anchor="middle" x="257" y="-99.8" font-family="Times,serif" font-size="14.00" fill="#000000">AuthService</text>
</g>
<!-- AuthService&#45;&gt;AuthModule -->
<g id="edge12" class="edge">
<title>AuthService&#45;&gt;AuthModule</title>
<path fill="none" stroke="#000000" d="M257,-122.2843C257,-143.3211 257,-175 257,-175 257,-175 765.3684,-175 765.3684,-175"/>
<polygon fill="#000000" stroke="#000000" points="765.3685,-178.5001 775.3684,-175 765.3684,-171.5001 765.3685,-178.5001"/>
</g>
<!-- TokenInterceptor -->
<g id="node14" class="node">
<title>TokenInterceptor</title>
<ellipse fill="#fdb462" stroke="#000000" cx="102" cy="-104" rx="78.1308" ry="18"/>
<text text-anchor="middle" x="102" y="-99.8" font-family="Times,serif" font-size="14.00" fill="#000000">TokenInterceptor</text>
</g>
<!-- TokenInterceptor&#45;&gt;AuthModule -->
<g id="edge13" class="edge">
<title>TokenInterceptor&#45;&gt;AuthModule</title>
<path fill="none" stroke="#000000" d="M102,-122.2479C102,-145.0179 102,-181 102,-181 102,-181 765.2278,-181 765.2278,-181"/>
<polygon fill="#000000" stroke="#000000" points="765.2278,-184.5001 775.2278,-181 765.2277,-177.5001 765.2278,-184.5001"/>
</g>
</g>
</svg>
