<?xml version="1.0" encoding="UTF-8" standalone="no"?>
<!DOCTYPE svg PUBLIC "-//W3C//DTD SVG 1.1//EN"
 "http://www.w3.org/Graphics/SVG/1.1/DTD/svg11.dtd">
<!-- Generated by graphviz version 2.40.1 (20161225.0304)
 -->
<!-- Title: dependencies Pages: 1 -->
<svg width="1368pt" height="284pt"
 viewBox="0.00 0.00 1368.00 284.00" xmlns="http://www.w3.org/2000/svg" xmlns:xlink="http://www.w3.org/1999/xlink">
<g id="graph0" class="graph" transform="scale(1 1) rotate(0) translate(4 280)">
<title>dependencies</title>
<polygon fill="#ffffff" stroke="transparent" points="-4,4 -4,-280 1364,-280 1364,4 -4,4"/>
<text text-anchor="start" x="659.0091" y="-42.4" font-family="sans-serif" font-weight="bold" font-size="14.00" fill="#000000">Legend</text>
<polygon fill="#ffffb3" stroke="transparent" points="446,-10 446,-30 466,-30 466,-10 446,-10"/>
<text text-anchor="start" x="469.629" y="-15.4" font-family="sans-serif" font-size="14.00" fill="#000000"> &#160;Declarations</text>
<polygon fill="#8dd3c7" stroke="transparent" points="559,-10 559,-30 579,-30 579,-10 559,-10"/>
<text text-anchor="start" x="582.7251" y="-15.4" font-family="sans-serif" font-size="14.00" fill="#000000"> &#160;Module</text>
<polygon fill="#80b1d3" stroke="transparent" points="645,-10 645,-30 665,-30 665,-10 645,-10"/>
<text text-anchor="start" x="668.7812" y="-15.4" font-family="sans-serif" font-size="14.00" fill="#000000"> &#160;Bootstrap</text>
<polygon fill="#fdb462" stroke="transparent" points="742,-10 742,-30 762,-30 762,-10 742,-10"/>
<text text-anchor="start" x="765.6732" y="-15.4" font-family="sans-serif" font-size="14.00" fill="#000000"> &#160;Providers</text>
<polygon fill="#fb8072" stroke="transparent" points="838,-10 838,-30 858,-30 858,-10 838,-10"/>
<text text-anchor="start" x="861.7258" y="-15.4" font-family="sans-serif" font-size="14.00" fill="#000000"> &#160;Exports</text>
<g id="clust1" class="cluster">
<title>cluster_LayoutModule</title>
<polygon fill="none" stroke="#000000" stroke-dasharray="1,5" points="8,-70 8,-268 1352,-268 1352,-70 8,-70"/>
</g>
<g id="clust2" class="cluster">
<title>cluster_LayoutModule_declarations</title>
<polygon fill="none" stroke="#000000" points="584,-78 584,-130 1344,-130 1344,-78 584,-78"/>
</g>
<g id="clust8" class="cluster">
<title>cluster_LayoutModule_imports</title>
<polygon fill="none" stroke="#000000" points="16,-78 16,-130 576,-130 576,-78 16,-78"/>
</g>
<g id="clust9" class="cluster">
<title>cluster_LayoutModule_exports</title>
<polygon fill="none" stroke="#000000" points="326,-208 326,-260 901,-260 901,-208 326,-208"/>
</g>
<!-- NavigationComponent -->
<g id="node1" class="node">
<title>NavigationComponent</title>
<polygon fill="#ffffb3" stroke="#000000" points="1335.5407,-122 1192.4593,-122 1192.4593,-86 1335.5407,-86 1335.5407,-122"/>
<text text-anchor="middle" x="1264" y="-99.8" font-family="Times,serif" font-size="14.00" fill="#000000">NavigationComponent</text>
</g>
<!-- LayoutModule -->
<g id="node6" class="node">
<title>LayoutModule</title>
<polygon fill="#8dd3c7" stroke="#000000" points="652.7078,-187 649.7078,-191 628.7078,-191 625.7078,-187 553.2922,-187 553.2922,-151 652.7078,-151 652.7078,-187"/>
<text text-anchor="middle" x="603" y="-164.8" font-family="Times,serif" font-size="14.00" fill="#000000">LayoutModule</text>
</g>
<!-- NavigationComponent&#45;&gt;LayoutModule -->
<g id="edge1" class="edge">
<title>NavigationComponent&#45;&gt;LayoutModule</title>
<path fill="none" stroke="#000000" d="M1264,-122.2843C1264,-143.3211 1264,-175 1264,-175 1264,-175 662.6824,-175 662.6824,-175"/>
<polygon fill="#000000" stroke="#000000" points="662.6825,-171.5001 652.6824,-175 662.6824,-178.5001 662.6825,-171.5001"/>
</g>
<!-- BodyComponent -->
<g id="node2" class="node">
<title>BodyComponent</title>
<polygon fill="#ffffb3" stroke="#000000" points="1173.6695,-122 1062.3305,-122 1062.3305,-86 1173.6695,-86 1173.6695,-122"/>
<text text-anchor="middle" x="1118" y="-99.8" font-family="Times,serif" font-size="14.00" fill="#000000">BodyComponent</text>
</g>
<!-- BodyComponent&#45;&gt;LayoutModule -->
<g id="edge2" class="edge">
<title>BodyComponent&#45;&gt;LayoutModule</title>
<path fill="none" stroke="#000000" d="M1118,-122.1061C1118,-141.3391 1118,-169 1118,-169 1118,-169 662.8483,-169 662.8483,-169"/>
<polygon fill="#000000" stroke="#000000" points="662.8483,-165.5001 652.8483,-169 662.8483,-172.5001 662.8483,-165.5001"/>
</g>
<!-- SidebarComponent -->
<g id="node3" class="node">
<title>SidebarComponent</title>
<polygon fill="#ffffb3" stroke="#000000" points="1044.0954,-122 919.9046,-122 919.9046,-86 1044.0954,-86 1044.0954,-122"/>
<text text-anchor="middle" x="982" y="-99.8" font-family="Times,serif" font-size="14.00" fill="#000000">SidebarComponent</text>
</g>
<!-- SidebarComponent&#45;&gt;LayoutModule -->
<g id="edge3" class="edge">
<title>SidebarComponent&#45;&gt;LayoutModule</title>
<path fill="none" stroke="#000000" d="M982,-122.0225C982,-139.3734 982,-163 982,-163 982,-163 662.9374,-163 662.9374,-163"/>
<polygon fill="#000000" stroke="#000000" points="662.9374,-159.5001 652.9374,-163 662.9373,-166.5001 662.9374,-159.5001"/>
</g>
<!-- LogoComponent -->
<g id="node4" class="node">
<title>LogoComponent</title>
<polygon fill="#ffffb3" stroke="#000000" points="902.3851,-122 791.6149,-122 791.6149,-86 902.3851,-86 902.3851,-122"/>
<text text-anchor="middle" x="847" y="-99.8" font-family="Times,serif" font-size="14.00" fill="#000000">LogoComponent</text>
</g>
<!-- LogoComponent&#45;&gt;LayoutModule -->
<g id="edge4" class="edge">
<title>LogoComponent&#45;&gt;LayoutModule</title>
<path fill="none" stroke="#000000" d="M842.0388,-122.2396C842.0388,-137.5706 842.0388,-157 842.0388,-157 842.0388,-157 662.8194,-157 662.8194,-157"/>
<polygon fill="#000000" stroke="#000000" points="662.8194,-153.5001 652.8194,-157 662.8194,-160.5001 662.8194,-153.5001"/>
</g>
<!-- NavigationSearchComponent -->
<g id="node5" class="node">
<title>NavigationSearchComponent</title>
<polygon fill="#ffffb3" stroke="#000000" points="773.6274,-122 592.3726,-122 592.3726,-86 773.6274,-86 773.6274,-122"/>
<text text-anchor="middle" x="683" y="-99.8" font-family="Times,serif" font-size="14.00" fill="#000000">NavigationSearchComponent</text>
</g>
<!-- NavigationSearchComponent&#45;&gt;LayoutModule -->
<g id="edge5" class="edge">
<title>NavigationSearchComponent&#45;&gt;LayoutModule</title>
<path fill="none" stroke="#000000" d="M622.3952,-122.1061C622.3952,-122.1061 622.3952,-140.991 622.3952,-140.991"/>
<polygon fill="#000000" stroke="#000000" points="618.8952,-140.9909 622.3952,-150.991 625.8952,-140.991 618.8952,-140.9909"/>
</g>
<!-- NavigationComponent  -->
<g id="node12" class="node">
<title>NavigationComponent </title>
<polygon fill="#fb8072" stroke="#000000" points="892.54,-252 745.46,-252 745.46,-216 892.54,-216 892.54,-252"/>
<text text-anchor="middle" x="819" y="-229.8" font-family="Times,serif" font-size="14.00" fill="#000000">NavigationComponent </text>
</g>
<!-- LayoutModule&#45;&gt;NavigationComponent  -->
<g id="edge11" class="edge">
<title>LayoutModule&#45;&gt;NavigationComponent </title>
<path fill="none" stroke="#000000" stroke-dasharray="5,2" d="M652.9947,-181C698.8385,-181 759.6468,-181 759.6468,-181 759.6468,-181 759.6468,-205.7604 759.6468,-205.7604"/>
<polygon fill="#000000" stroke="#000000" points="756.1468,-205.7604 759.6468,-215.7604 763.1468,-205.7604 756.1468,-205.7604"/>
</g>
<!-- BodyComponent  -->
<g id="node13" class="node">
<title>BodyComponent </title>
<polygon fill="#fb8072" stroke="#000000" points="727.6691,-252 612.3309,-252 612.3309,-216 727.6691,-216 727.6691,-252"/>
<text text-anchor="middle" x="670" y="-229.8" font-family="Times,serif" font-size="14.00" fill="#000000">BodyComponent </text>
</g>
<!-- LayoutModule&#45;&gt;BodyComponent  -->
<g id="edge12" class="edge">
<title>LayoutModule&#45;&gt;BodyComponent </title>
<path fill="none" stroke="#000000" stroke-dasharray="5,2" d="M632.5097,-187.1061C632.5097,-187.1061 632.5097,-205.991 632.5097,-205.991"/>
<polygon fill="#000000" stroke="#000000" points="629.0097,-205.9909 632.5097,-215.991 636.0097,-205.991 629.0097,-205.9909"/>
</g>
<!-- LogoComponent  -->
<g id="node14" class="node">
<title>LogoComponent </title>
<polygon fill="#fb8072" stroke="#000000" points="594.3857,-252 479.6143,-252 479.6143,-216 594.3857,-216 594.3857,-252"/>
<text text-anchor="middle" x="537" y="-229.8" font-family="Times,serif" font-size="14.00" fill="#000000">LogoComponent </text>
</g>
<!-- LayoutModule&#45;&gt;LogoComponent  -->
<g id="edge13" class="edge">
<title>LayoutModule&#45;&gt;LogoComponent </title>
<path fill="none" stroke="#000000" stroke-dasharray="5,2" d="M573.7944,-187.1061C573.7944,-187.1061 573.7944,-205.991 573.7944,-205.991"/>
<polygon fill="#000000" stroke="#000000" points="570.2944,-205.9909 573.7944,-215.991 577.2944,-205.991 570.2944,-205.9909"/>
</g>
<!-- SidebarComponent  -->
<g id="node15" class="node">
<title>SidebarComponent </title>
<polygon fill="#fb8072" stroke="#000000" points="461.596,-252 334.404,-252 334.404,-216 461.596,-216 461.596,-252"/>
<text text-anchor="middle" x="398" y="-229.8" font-family="Times,serif" font-size="14.00" fill="#000000">SidebarComponent </text>
</g>
<!-- LayoutModule&#45;&gt;SidebarComponent  -->
<g id="edge14" class="edge">
<title>LayoutModule&#45;&gt;SidebarComponent </title>
<path fill="none" stroke="#000000" stroke-dasharray="5,2" d="M553.2653,-181C492.1499,-181 396.4585,-181 396.4585,-181 396.4585,-181 396.4585,-205.7604 396.4585,-205.7604"/>
<polygon fill="#000000" stroke="#000000" points="392.9586,-205.7604 396.4585,-215.7604 399.9586,-205.7604 392.9586,-205.7604"/>
</g>
<!-- AuthModule -->
<g id="node7" class="node">
<title>AuthModule</title>
<polygon fill="#8dd3c7" stroke="#000000" points="567.5482,-122 564.5482,-126 543.5482,-126 540.5482,-122 480.4518,-122 480.4518,-86 567.5482,-86 567.5482,-122"/>
<text text-anchor="middle" x="524" y="-99.8" font-family="Times,serif" font-size="14.00" fill="#000000">AuthModule</text>
</g>
<!-- AuthModule&#45;&gt;LayoutModule -->
<g id="edge6" class="edge">
<title>AuthModule&#45;&gt;LayoutModule</title>
<path fill="none" stroke="#000000" d="M560.5849,-122.1061C560.5849,-122.1061 560.5849,-140.991 560.5849,-140.991"/>
<polygon fill="#000000" stroke="#000000" points="557.0849,-140.9909 560.5849,-150.991 564.0849,-140.991 557.0849,-140.9909"/>
</g>
<!-- SharedModule -->
<g id="node8" class="node">
<title>SharedModule</title>
<polygon fill="#8dd3c7" stroke="#000000" points="462.4231,-122 459.4231,-126 438.4231,-126 435.4231,-122 363.5769,-122 363.5769,-86 462.4231,-86 462.4231,-122"/>
<text text-anchor="middle" x="413" y="-99.8" font-family="Times,serif" font-size="14.00" fill="#000000">SharedModule</text>
</g>
<!-- SharedModule&#45;&gt;LayoutModule -->
<g id="edge7" class="edge">
<title>SharedModule&#45;&gt;LayoutModule</title>
<path fill="none" stroke="#000000" d="M429.1281,-122.2396C429.1281,-137.5706 429.1281,-157 429.1281,-157 429.1281,-157 543.1753,-157 543.1753,-157"/>
<polygon fill="#000000" stroke="#000000" points="543.1753,-160.5001 553.1753,-157 543.1753,-153.5001 543.1753,-160.5001"/>
</g>
<!-- AppsModule -->
<g id="node9" class="node">
<title>AppsModule</title>
<polygon fill="#8dd3c7" stroke="#000000" points="345.6011,-122 342.6011,-126 321.6011,-126 318.6011,-122 256.3989,-122 256.3989,-86 345.6011,-86 345.6011,-122"/>
<text text-anchor="middle" x="301" y="-99.8" font-family="Times,serif" font-size="14.00" fill="#000000">AppsModule</text>
</g>
<!-- AppsModule&#45;&gt;LayoutModule -->
<g id="edge8" class="edge">
<title>AppsModule&#45;&gt;LayoutModule</title>
<path fill="none" stroke="#000000" d="M339.8764,-122.0225C339.8764,-139.3734 339.8764,-163 339.8764,-163 339.8764,-163 543.1991,-163 543.1991,-163"/>
<polygon fill="#000000" stroke="#000000" points="543.1992,-166.5001 553.1991,-163 543.1991,-159.5001 543.1992,-166.5001"/>
</g>
<!-- StreamsModule -->
<g id="node10" class="node">
<title>StreamsModule</title>
<polygon fill="#8dd3c7" stroke="#000000" points="238.1486,-122 235.1486,-126 214.1486,-126 211.1486,-122 133.8514,-122 133.8514,-86 238.1486,-86 238.1486,-122"/>
<text text-anchor="middle" x="186" y="-99.8" font-family="Times,serif" font-size="14.00" fill="#000000">StreamsModule</text>
</g>
<!-- StreamsModule&#45;&gt;LayoutModule -->
<g id="edge9" class="edge">
<title>StreamsModule&#45;&gt;LayoutModule</title>
<path fill="none" stroke="#000000" d="M186,-122.1061C186,-141.3391 186,-169 186,-169 186,-169 543.1143,-169 543.1143,-169"/>
<polygon fill="#000000" stroke="#000000" points="543.1143,-172.5001 553.1143,-169 543.1142,-165.5001 543.1143,-172.5001"/>
</g>
<!-- TasksModule -->
<g id="node11" class="node">
<title>TasksModule</title>
<polygon fill="#8dd3c7" stroke="#000000" points="116.2064,-122 113.2064,-126 92.2064,-126 89.2064,-122 23.7936,-122 23.7936,-86 116.2064,-86 116.2064,-122"/>
<text text-anchor="middle" x="70" y="-99.8" font-family="Times,serif" font-size="14.00" fill="#000000">TasksModule</text>
</g>
<!-- TasksModule&#45;&gt;LayoutModule -->
<g id="edge10" class="edge">
<title>TasksModule&#45;&gt;LayoutModule</title>
<path fill="none" stroke="#000000" d="M70,-122.2843C70,-143.3211 70,-175 70,-175 70,-175 543.3353,-175 543.3353,-175"/>
<polygon fill="#000000" stroke="#000000" points="543.3353,-178.5001 553.3353,-175 543.3352,-171.5001 543.3353,-178.5001"/>
</g>
</g>
</svg>
