<?xml version="1.0" standalone="no"?>
<!DOCTYPE svg PUBLIC "-//W3C//DTD SVG 1.1//EN" "http://www.w3.org/Graphics/SVG/1.1/DTD/svg11.dtd">
<svg width="100%" height="100%" viewBox="0 0 173 172" version="1.1" xmlns="http://www.w3.org/2000/svg" xmlns:xlink="http://www.w3.org/1999/xlink" xml:space="preserve" style="fill-rule:evenodd;clip-rule:evenodd;stroke-linejoin:round;stroke-miterlimit:1.41421;">
    <g transform="matrix(1,0,0,1,-681.906,-346.372)">
        <g>
            <path d="M838.11,470.115C816.926,498.33 771.688,488.814 742.68,490.173C742.68,490.173 737.545,490.466 732.369,491.323C732.369,491.323 734.327,490.487 736.824,489.621C757.193,482.576 766.82,481.16 779.208,474.801C802.459,462.888 825.617,436.94 830.316,409.972C821.465,435.907 794.537,458.225 770.023,467.287C753.239,473.476 722.895,479.504 722.891,479.508C722.909,479.527 721.683,478.868 721.663,478.855C701.031,468.815 700.431,424.117 737.915,409.709C754.351,403.383 770.072,406.86 787.834,402.629C806.783,398.129 828.723,383.924 837.641,365.35C847.644,395.011 859.655,441.411 838.11,470.115M721.62,495.819C719.068,498.967 714.446,499.452 711.295,496.898C708.147,494.346 707.662,489.724 710.214,486.575C712.768,483.426 717.389,482.942 720.54,485.494C723.688,488.045 724.172,492.668 721.62,495.819M838.477,356.163C835.96,362.151 832.878,367.553 829.331,372.379C813.716,356.355 791.925,346.372 767.832,346.372C720.453,346.372 681.906,384.92 681.906,432.3C681.906,457.133 692.508,479.53 709.408,495.231L712.583,498.04C727.533,510.624 746.807,518.226 767.832,518.226C813.126,518.226 850.319,482.988 853.506,438.495C855.857,416.713 849.424,389.057 838.477,356.163" style="fill:white;fill-rule:nonzero;"/>
        </g>
    </g>
</svg>
